<?xml version="1.0" standalone="no"?>
<!DOCTYPE svg PUBLIC "-//W3C//DTD SVG 1.1//EN" "http://www.w3.org/Graphics/SVG/1.1/DTD/svg11.dtd" >
<svg>
<metadata>
Created by FontForge 20090914 at Fri Feb 24 11:33:14 2012
 By root
Copyright 1992 Southern Software, Inc. All Rights Reserved
</metadata>
<defs>
<font id="CaslonSSKSemiBold" horiz-adv-x="513" >
  <font-face 
    font-family="CaslonSSK"
    font-weight="600"
    font-stretch="normal"
    units-per-em="1000"
    panose-1="0 0 6 0 0 0 0 0 0 0"
    ascent="800"
    descent="-200"
    x-height="424"
    cap-height="718"
    bbox="-44 -278 1147 949"
    underline-thickness="50"
    underline-position="-75"
    unicode-range="U+0020-U+F002"
  />
<missing-glyph horiz-adv-x="500" 
d="M63 0v800h375v-800h-375zM125 63h250v675h-250v-675z" />
    <glyph glyph-name=".notdef" horiz-adv-x="500" 
d="M63 0v800h375v-800h-375zM125 63h250v675h-250v-675z" />
    <glyph glyph-name=".null" horiz-adv-x="0" 
 />
    <glyph glyph-name="nonmarkingreturn" horiz-adv-x="290" 
 />
    <glyph glyph-name="space" unicode=" " horiz-adv-x="290" 
 />
    <glyph glyph-name="exclam" unicode="!" horiz-adv-x="266" 
d="M196 621q0 -71 -23 -202q-24 -142 -27 -204l-8 -8h-18q-4 4 -27 190.5t-23 215.5q0 32 15.5 54.5t46.5 22.5q64 0 64 -69zM199 48q0 -28 -18.5 -44t-46.5 -16q-30 0 -48.5 17.5t-18.5 47.5q0 27 20 44.5t48 17.5t46 -19.5t18 -47.5z" />
    <glyph glyph-name="quotedbl" unicode="&#x22;" horiz-adv-x="351" 
d="M311 680q0 -40 -15 -116q-18 -88 -21 -117h-34q-2 34 -19 117q-17 77 -17 114q0 23 15.5 37.5t38.5 14.5q52 0 52 -50zM145 680q0 -40 -15 -116q-18 -88 -21 -117h-34q-2 34 -19 117q-17 77 -17 114q0 23 15.5 37.5t38.5 14.5q52 0 52 -50z" />
    <glyph glyph-name="numbersign" unicode="#" horiz-adv-x="476" 
d="M499 481l-12 -61q-5 -6 -116 -6l-31 -145h105l12 -8l-12 -61q-6 -4 -119 -4l-22 -113q-20 -94 -30 -98h-54l-4 12l42 199h-100l-22 -112q-20 -93 -30 -99h-54l-4 14l44 197h-109l-6 8l12 59q5 6 117 6l31 145h-100q-15 0 -14 6l10 61q6 6 116 6l23 108q20 91 28 95h54
l4 -12l-42 -191h100q11 54 21 109q19 90 29 94h54l4 -12l-40 -191h105zM302 414h-98l-31 -145h98z" />
    <glyph glyph-name="dollar" unicode="$" horiz-adv-x="453" 
d="M425 202q0 -67 -42.5 -117.5t-107.5 -62.5v-54l-8 -10h-18l-8 10l2 50q-41 0 -54 4l-2 -54l-8 -10h-20l-6 10l2 60q-18 5 -44 20q-30 18 -42 23l-16 -18l-16 -7l-8 15q3 46 7 92q7 73 15 81l20 -2l6 -6q0 -114 78 -153l8 236q-130 35 -130 172q0 61 38.5 109t99.5 58v36
q2 28 8 31h20l8 -10l-2 -53q37 0 54 -2v55l8 10h20q6 -4 4 -71q6 -1 25 -8q15 -6 25 -6l18 2l10 12l14 4l8 -12l2 -151l-4 -8l-18 -2l-6 2q-20 93 -72 123l-8 -214q140 -37 140 -184zM257 612q-20 8 -38 8q-6 0 -14 -2l-6 -212q11 -5 52 -12zM169 610q-52 -26 -52 -99
q0 -68 48 -91zM341 170q0 78 -58 105l-6 -214q64 23 64 109zM249 287q-33 8 -52 14l-8 -242q8 -4 46 -4h8z" />
    <glyph glyph-name="percent" unicode="%" horiz-adv-x="736" 
d="M734 205q0 -89 -33 -145q-40 -69 -123 -69q-76 0 -116 66q-34 56 -34 137q0 88 34 147q41 73 122 73q78 0 118 -69q32 -56 32 -140zM597 667q-8 -21 -210.5 -349t-208.5 -333q-7 1 -20 10t-17 16q15 31 215 356q198 321 202 323q7 0 21.5 -8.5t17.5 -14.5zM308 481
q0 -90 -32 -145q-41 -69 -124 -69q-76 0 -116 66q-34 56 -34 137q0 88 34 147q41 73 122 73q78 0 118 -69q32 -56 32 -140zM640 214q0 166 -60 166q-42 0 -54 -77q-6 -34 -6 -110q0 -168 60 -168q61 0 61 133v32q-1 19 -1 24zM214 490q0 165 -60 165q-42 0 -55 -77
q-5 -32 -5 -109q0 -168 60 -168q61 0 61 131v33q-1 20 -1 25z" />
    <glyph glyph-name="ampersand" unicode="&#x26;" horiz-adv-x="837" 
d="M855 113q0 -44 -80 -88q-72 -40 -120 -40q-67 0 -122 43q-32 24 -90 95q-66 -72 -103 -97q-60 -41 -135 -41q-81 0 -148 47q-74 52 -74 130q0 145 192 246q-102 66 -102 135q0 60 59 116t119 56q61 0 108 -38q52 -41 52 -101q0 -40 -40 -82q-34 -36 -76 -56
q106 -49 204 -190q24 31 46 74q28 52 28 80q0 30 -46 30l-6 8v23l6 7q103 -5 210 0l8 -8v-22l-8 -8q-69 0 -125 -79l-87 -139l87 -98q58 -57 111 -57q62 0 106 72l8 2l18 -12v-8zM321 578q0 33 -18 63q-21 34 -52 34q-38 0 -60 -37q-18 -32 -18 -72q0 -54 92 -107
q31 28 43.5 53t12.5 66zM421 156q-110 165 -218 228q-46 -26 -75 -79t-29 -107t45 -96t99 -42q55 0 100 27q35 21 78 69z" />
    <glyph glyph-name="quotesingle" unicode="'" horiz-adv-x="202" 
d="M154 680q0 -40 -15 -116q-18 -88 -21 -117h-34q-2 34 -20 117q-16 77 -16 114q0 23 15.5 37.5t38.5 14.5q52 0 52 -50z" />
    <glyph glyph-name="parenleft" unicode="(" horiz-adv-x="314" 
d="M283 -159l-20 -16q-93 22 -168 198q-64 153 -64 267q0 106 69 265q77 179 163 199l20 -14l-10 -18q-78 -140 -101 -205q-37 -100 -37 -225q0 -133 35 -229q25 -70 105 -203z" />
    <glyph glyph-name="parenright" unicode=")" horiz-adv-x="342" 
d="M297 292q0 -106 -69 -267q-77 -181 -163 -200l-20 16l10 17q75 128 102 206q36 101 36 226q0 132 -35 228q-26 75 -105 202l-8 18l20 16q93 -23 167 -197q65 -151 65 -265z" />
    <glyph glyph-name="asterisk" unicode="*" horiz-adv-x="287" 
d="M290 508q0 -40 -38 -40q-18 0 -56 37q-35 33 -45 54l-4 -5q34 -100 34 -113q0 -38 -38 -38q-16 0 -27 11t-11 27q0 24 33 113l-4 3l-46 -56q-35 -38 -55 -38q-14 0 -25 12.5t-11 27.5q0 27 54 44q9 3 77 18v4l-78 16q-54 14 -54 41q0 16 11 28.5t26 12.5q20 0 54 -36
l48 -52l4 2q-34 101 -34 113q0 36 38 36t38 -34q0 -11 -14 -58t-20 -57l4 -4q18 25 46 53q37 37 54 37q15 0 25.5 -13t10.5 -28q0 -27 -55 -42q-39 -12 -79 -13v-4q41 -8 81 -17q56 -15 56 -42z" />
    <glyph glyph-name="plus" unicode="+" horiz-adv-x="449" 
d="M421 210h-160v-172h-72v172h-160v67h160v169h72v-169h160v-67z" />
    <glyph glyph-name="comma" unicode="," horiz-adv-x="245" 
d="M205 16q0 -55 -54.5 -127.5t-99.5 -72.5q-12 0 -12 10q0 4 22 27q26 28 39 49q21 34 21 66q0 18 -19 29l-37 21q-20 16 -20 47q0 29 18.5 47.5t47.5 18.5q43 0 70 -37q24 -34 24 -78z" />
    <glyph glyph-name="hyphen" unicode="-" horiz-adv-x="406" 
d="M353 246q0 -9 -11 -9h-281q-8 0 -8 6v53q0 8 8 8h281q11 0 11 -10v-48z" />
    <glyph glyph-name="hyphen" unicode="&#x2010;" horiz-adv-x="406" 
d="M353 246q0 -9 -11 -9h-281q-8 0 -8 6v53q0 8 8 8h281q11 0 11 -10v-48z" />
    <glyph glyph-name="period" unicode="." horiz-adv-x="277" 
d="M209 55q0 -29 -19 -48t-47 -19q-33 0 -53.5 19.5t-20.5 51.5q0 29 21 47.5t51 18.5q29 0 48.5 -20.5t19.5 -49.5z" />
    <glyph glyph-name="slash" unicode="/" horiz-adv-x="325" 
d="M341 708q-18 -74 -139 -351l-161 -366l-11 -5l-44 20l-3 6q5 24 141 343l158 372l12 6l42 -18z" />
    <glyph glyph-name="zero" unicode="0" horiz-adv-x="480" 
d="M462 344q0 -141 -40 -232q-54 -127 -176 -127q-112 0 -176 109q-52 91 -52 212q0 141 44 244q60 140 182 140q118 0 175 -121q43 -92 43 -225zM344 365q0 91 -16 164q-25 120 -84 120q-106 0 -106 -327q0 -297 108 -297q72 0 91 144q7 47 7 196z" />
    <glyph glyph-name="one" unicode="1" horiz-adv-x="480" 
d="M423 5l-10 -8q-161 3 -326 0l-8 7v26l11 7h39q44 0 55.5 7.5t14.5 48.5q2 34 2 193v216q0 52 -24 52q-16 0 -102 -26l-10 2l-8 20l6 13l128 69q106 56 120 58q5 -2 8 -16q5 -26 5 -80q0 -44 -4.5 -137.5t-4.5 -121.5l2 -239q0 -40 10 -49.5t50 -9.5h36l10 -7v-25z" />
    <glyph glyph-name="two" unicode="2" horiz-adv-x="480" 
d="M473 160l-37 -101q-31 -82 -45 -83q-54 32 -155 32q-38 0 -112 -5.5t-105 -5.5l-12 5q3 20 86 99q104 99 150 162q80 108 80 204q0 61 -29 99q-32 41 -91 41q-75 0 -124 -85l-12 -6l-16 8l-2 5q10 66 78 115q64 46 132 46q75 0 129.5 -54t54.5 -129q0 -82 -51 -163
q-38 -61 -116 -134l-129 -117h184q39 0 60 14q13 8 30 33.5t33 38.5l9 -3z" />
    <glyph glyph-name="three" unicode="3" horiz-adv-x="480" 
d="M451 209q0 -100 -86 -165q-79 -59 -182 -59q-52 0 -95 16q-59 22 -59 65q0 18 10 33t28 15q28 0 41.5 -21.5l25.5 -42.5q21 -23 67 -23q54 0 90 41t36 96q0 73 -36 115q-32 38 -104 60q-20 6 -20 19q0 8 36 23q45 18 68 39q36 36 36 94q0 42 -25.5 72.5t-66.5 30.5
q-45 0 -76 -29q-20 -18 -38 -53q-15 -30 -20 -31l-18 6l-4 16q0 64 68 116q63 48 128 48q64 0 111 -36q51 -38 51 -101q0 -99 -120 -171q62 -13 106 -61q48 -51 48 -112z" />
    <glyph glyph-name="four" unicode="4" horiz-adv-x="480" 
d="M479 182q0 -8 -19 -10q-14 -2 -38 -1q-34 1 -25 1q0 -2 2.5 -39t2.5 -62q0 -71 -19 -71h-82l-12 12v160q-8 0 -70 -3.5t-101 -3.5q-103 0 -117 23q0 33 189 270q184 230 193 232q21 -12 21 -174q0 -65 -3.5 -161t-3.5 -100h70l12 -11v-62zM289 253v239q0 13 -8 13
q-5 0 -10 -7l-94 -121q-80 -106 -80 -115t14 -9h178z" />
    <glyph glyph-name="five" unicode="5" horiz-adv-x="480" 
d="M454 715q-31 -105 -42 -125q-16 -28 -56 -28q-10 0 -73 5t-122 5l-18 -129q121 0 192 -44q87 -53 87 -166q0 -108 -82 -180q-79 -68 -189 -68q-35 0 -74 12q-52 16 -52 44q0 33 26 33q12 0 52 -20t74 -20q61 0 103.5 42.5t42.5 103.5q0 161 -222 161l-10 17q10 84 16 210
q4 74 16.5 92.5t68.5 18.5q13 0 70.5 -2t103.5 -2q33 0 48 24q18 30 22 32l8 -2z" />
    <glyph glyph-name="six" unicode="6" horiz-adv-x="480" 
d="M455 227q0 -104 -56 -171q-60 -71 -162 -71q-104 0 -161 77q-51 69 -51 177q0 157 102.5 289t255.5 162l14 -12l-108 -87q-110 -102 -133 -221l3 -4q45 42 120 42q76 0 126 -52t50 -129zM339 184q0 62 -21 108q-27 62 -81 62q-64 0 -83 -50q-11 -28 -11 -105
q0 -178 102 -178q94 0 94 163z" />
    <glyph glyph-name="seven" unicode="7" horiz-adv-x="480" 
d="M466 665q-15 -50 -65 -139q-56 -102 -71 -140q-22 -56 -60 -174t-62 -175q-21 -52 -66 -52q-22 0 -36 14.5t-14 36.5q0 44 125 267l159 273h-234q-40 0 -62 -16q-14 -9 -26 -28.5t-21 -21.5q-13 0 -19 11q4 30 32 105q31 87 48 87q12 0 12 -19t58 -19h292z" />
    <glyph glyph-name="eight" unicode="8" horiz-adv-x="480" 
d="M444 167q0 -77 -67 -131q-62 -51 -141 -51q-77 0 -130 32q-64 38 -64 110q0 112 130 190q-66 42 -93 73q-43 47 -43 106q0 85 71 142q66 52 153 52q62 0 116 -35q60 -39 60 -99q0 -70 -36 -117q-28 -36 -96 -79q140 -75 140 -193zM350 524q0 50 -27 85.5t-75 35.5
q-49 0 -78 -39q-26 -35 -26 -85q0 -49 39 -86q21 -19 83 -55q84 56 84 144zM342 141q0 52 -46 94q-24 22 -90 60q-82 -51 -82 -147q0 -51 32 -88t82 -37q51 0 79 34q25 31 25 84z" />
    <glyph glyph-name="nine" unicode="9" horiz-adv-x="480" 
d="M455 458q0 -154 -84 -288q-91 -145 -234 -179q-25 -6 -30 -6q-14 0 -16 16l10 16q83 31 146 119q60 83 72 175l-4 2q-42 -38 -114 -38q-81 0 -128.5 54t-47.5 135q0 88 62 157t148 69q98 0 159 -66t61 -166zM333 478q0 175 -94 175q-55 0 -82 -55q-20 -42 -20 -103
q0 -58 23 -108q29 -62 81 -62q61 0 81 50q11 29 11 103z" />
    <glyph glyph-name="colon" unicode=":" horiz-adv-x="207" 
d="M173 363q0 -29 -18.5 -48t-47.5 -19q-32 0 -53 19.5t-21 51.5q0 29 21.5 47.5t50.5 18.5q30 0 49 -20.5t19 -49.5zM173 55q0 -29 -18.5 -48t-47.5 -19q-32 0 -53 19.5t-21 51.5q0 29 21.5 47.5t50.5 18.5q30 0 49 -20.5t19 -49.5z" />
    <glyph glyph-name="semicolon" unicode=";" horiz-adv-x="284" 
d="M207 363q0 -30 -19 -48.5t-49 -18.5q-32 0 -52 19.5t-20 51.5q0 29 21 47.5t51 18.5q29 0 48.5 -20.5t19.5 -49.5zM225 10q0 -55 -54.5 -127.5t-99.5 -72.5q-12 0 -12 10l41 49.5t41 92.5q0 18 -19 29l-37 21q-20 16 -20 47q0 29 18.5 48.5t47.5 19.5q43 0 70 -38
q24 -35 24 -79z" />
    <glyph glyph-name="less" unicode="&#x3c;" horiz-adv-x="446" 
d="M377 38l-308 186v39l308 183v-74l-214 -124v-4l214 -129v-77z" />
    <glyph glyph-name="equal" unicode="=" horiz-adv-x="410" 
d="M401 294h-392v67h392v-67zM401 141h-392v67h392v-67z" />
    <glyph glyph-name="greater" unicode="&#x3e;" horiz-adv-x="399" 
d="M353 222l-308 -184v75l214 123v6l-214 128v76l308 -185v-39z" />
    <glyph glyph-name="question" unicode="?" horiz-adv-x="302" 
d="M299 423q0 -80 -60 -111q-43 -22 -132 -22l-8 -8v-93l-6 -6h-22l-8 6v198q0 8 17 10q12 1 34 0q28 -2 27 -2q40 0 67 17q31 20 31 58q0 57 -61 83l-114 31q-61 18 -61 53q0 24 15.5 38.5t38.5 14.5q79 0 162 -95q80 -92 80 -172zM155 46q0 -58 -66 -58q-64 0 -64 58
q0 28 19 44.5t47 16.5q26 0 45 -17.5t19 -43.5z" />
    <glyph glyph-name="at" unicode="@" horiz-adv-x="731" 
d="M739 461q0 -118 -88.5 -200.5t-207.5 -82.5q-15 0 -28.5 9.5t-13.5 24.5q0 28 30 111l-4 2q-105 -147 -198 -147q-25 0 -40.5 18t-15.5 44q0 94 91 208q94 120 185 120q46 0 56 -37q12 22 24 27h56l6 -15q-21 -39 -60 -150q-41 -117 -42 -153l26 -20q67 1 111 98
q35 79 35 154q0 105 -55.5 161.5t-160.5 56.5q-148 0 -259 -130q-105 -125 -105 -276q0 -115 69 -185t183 -70q39 0 107 18.5t81 18.5l4 -2l8 -19q-7 -26 -98 -45q-72 -15 -118 -15q-140 0 -229 70q-97 77 -97 213q0 179 142.5 320.5t321.5 141.5q132 0 207 -68
q77 -71 77 -201zM473 485q0 48 -36 48q-55 0 -114 -107q-54 -97 -54 -159q0 -33 24 -33q41 0 112 103q68 100 68 148z" />
    <glyph glyph-name="A" unicode="A" horiz-adv-x="753" 
d="M758 9l-10 -12h-288l-10 12v20l8 8h36q22 4 22 23q0 22 -62 218h-232l-39 -107q-22 -65 -25 -109q15 -25 46 -25h12q8 1 12 1q12 0 18 -6v-25l-8 -10q-144 8 -236 0q-10 12 -6 32l6 8q42 0 55 5q19 8 39 41q29 48 116 288q91 250 91 300q0 6 -1 8l10 10q30 8 114 60
q26 -35 108 -313q84 -291 120 -352q18 -33 39 -41q15 -6 57 -6l8 -7v-21zM444 318l-48 160q-38 131 -46 138q-8 0 -13 -13q-47 -110 -101 -285h208z" />
    <glyph glyph-name="B" unicode="B" horiz-adv-x="694" 
d="M645 186q0 -119 -97 -161q-63 -28 -199 -28h-287l-7 8v25l7 7h43q47 0 47 160q0 28 -1.5 67t-1.5 45v139q0 10 2 45t2 56q0 129 -64 129h-32l-8 8v23l8 9h292q117 0 171 -25q81 -38 81 -140q0 -113 -136 -164v-5q180 -47 180 -198zM475 545q0 67 -44.5 103t-113.5 36
q-22 0 -26 -1q-13 -3 -16.5 -16t-3.5 -175v-94q16 -1 46 -1q74 0 116 37.5t42 110.5zM507 190q0 176 -210 176h-26v-202q0 -63 13 -92q19 -43 73 -43q150 0 150 161z" />
    <glyph glyph-name="C" unicode="C" horiz-adv-x="691" 
d="M680 155q-118 -170 -298 -170q-166 0 -268 100.5t-102 266.5q0 162 99 268q102 110 263 110q55 0 111 -17l106 -37q7 5 13 32l16 6q14 0 14 -16q0 -35 12 -105.5t12 -104.5l-4 -10l-19 -6q-4 2 -36 62q-34 65 -76 101q-63 53 -151 53q-113 0 -174 -93q-52 -79 -52 -198
q0 -131 65 -229q74 -112 199 -112q77 0 135 30q37 19 74 57q33 34 42 37l17 -15z" />
    <glyph glyph-name="D" unicode="D" horiz-adv-x="809" 
d="M784 370q0 -185 -116 -282q-108 -91 -296 -91h-340l-6 9v25l8 6q6 0 20 -1t21 -1q41 0 50 28q7 22 7 325v77q0 5 1 61q0 39 -1 64q-1 35 -6 59q-7 31 -48 31q-7 0 -21.5 -1t-20.5 -1l-8 7v27l9 6h301q196 0 309 -73q137 -88 137 -275zM646 368q0 134 -86 224.5t-218 90.5
q-50 0 -64 -10q-18 -12 -21 -108q1 26 1 -123v-79q0 -215 -2 -157q3 -115 22 -143t88 -28q130 0 208 104q72 95 72 229z" />
    <glyph glyph-name="E" unicode="E" horiz-adv-x="641" 
d="M631 164l-48 -152l-22 -15q-82 3 -183 3q-65 0 -184 -1q-137 -2 -183 -2l-8 8v24l10 8q8 0 22.5 -1t20.5 -1q41 0 41 46v348q0 17 1 71q2 46 1 73q-1 40 -6 69q-7 37 -46 37h-17q-12 -1 -19 -1l-6 7v26l6 7q-16 0 263 -3q157 -1 263 3l8 -6q14 -54 46 -161l-3 -11l-18 -8
l-9 5q-20 11 -54.5 55.5t-55.5 57.5q-43 27 -111 31h-117l-2 -292q94 0 117 7q58 18 59 91l8 8l26 -2l6 -8q-9 -78 4 -220l-8 -7l-22 -4l-8 7q-19 71 -65 87q-19 6 -117 6q0 -8 -1 -43q-1 -39 -1 -64q0 -192 46 -205q28 -8 78 -8q106 0 152 30q30 19 107 116l11 4l16 -10z
" />
    <glyph glyph-name="F" unicode="F" horiz-adv-x="606" 
d="M601 539l-3 -8l-19 -8q-7 4 -42 47l-42 54q-48 57 -177 57h-44q-28 -1 -41 -1v-323q101 0 138 18q23 12 27.5 43t20.5 43l20 -2l6 -7q-9 -87 4 -220l-6 -10l-22 -4q-7 2 -14 25q-5 16 -9 31q-13 36 -72 44q-17 3 -93 3v-251q0 -35 41 -35q7 0 22.5 1t22.5 1l8 -7v-25
l-8 -8q-59 4 -145 2q-159 -2 -145 -2l-6 7v27l6 6q56 0 44 -1q26 2 29 23q6 43 7 96q0 34 -2 96q-2 68 -2 96v116q0 8 2 44t2 59q0 112 -46 112h-50l-8 5v29l8 6q78 -5 281 -5q221 0 261 8q14 -31 26 -90q13 -71 20 -92z" />
    <glyph glyph-name="G" unicode="G" horiz-adv-x="738" 
d="M743 279l-8 -8q-39 0 -45 -2q-19 -6 -19 -36q0 -13 -2 -54q-2 -36 -1 -57q1 -32 7 -54q-33 -40 -141 -64q-85 -19 -159 -19q-177 0 -280 109q-100 106 -100 283q0 161 121 260q113 93 277 93q58 0 113 -19l104 -41q8 4 18.5 17t18.5 17l12 -14l10 -202l-4 -14l-24 -4
l-10 8q-73 210 -246 210q-114 0 -187 -99q-65 -89 -65 -208q0 -138 54 -233q67 -117 196 -117q86 0 118 15.5t39 58.5q3 19 3 119q0 38 -23 46q-4 1 -55 1l-8 9v23l6 8q155 -8 270 0l10 -7v-25z" />
    <glyph glyph-name="H" unicode="H" horiz-adv-x="842" 
d="M820 7l-10 -10h-290l-8 9v23l8 8h54q32 0 32 176q0 26 -1 60t-1 38v28l-22 12h-326l-14 -13v-43q0 -172 4 -223q2 -29 24 -34q3 -1 46 -1l10 -7v-23l-10 -10h-282l-10 9v23l10 8h52q32 0 32 163q0 28 -1 65t-1 40v142q0 6 1.5 39t1.5 56q0 136 -43 136h-44l-10 9v21
l10 10h292l10 -9v-21l-10 -10h-36q-48 0 -48 -167q0 -25 1 -61t1 -42l12 -14h330q17 0 20 16v28v132q-6 108 -32 108h-46l-8 9v23l8 8h274l12 -9v-21l-12 -10h-36q-37 0 -37 -134q0 -24 1.5 -58t1.5 -38v-126q0 -6 -1.5 -49.5t-1.5 -73.5q0 -162 45 -162h40l8 -7v-23z" />
    <glyph glyph-name="I" unicode="I" horiz-adv-x="370" 
d="M347 5l-10 -8q-277 1 -300 0l-8 7v27l8 6q53 0 52 0q27 4 34 30q4 16 4 281v80q0 19 2 71q1 47 0 74q0 40 -5 70q-6 37 -50 37q-7 0 -21.5 -1t-21.5 -1l-8 7v26l6 7h304l8 -9v-23l-8 -8h-47q-29 -5 -29 -28v-576q0 -38 46 -38h18q12 1 18 1l8 -7v-25z" />
    <glyph glyph-name="J" unicode="J" horiz-adv-x="436" 
d="M424 686l-8 -8q-5 0 -17.5 1t-18.5 1q-39 0 -43 -31t-4 -85q0 -37 3 -134.5t3 -152.5q0 -225 -47 -341q-63 -158 -222 -158q-28 0 -50 19.5t-22 46.5q0 25 16.5 42t41.5 17q58 0 84 -69q52 5 65 133q3 31 3 169q0 47 2 145.5t2 149.5q0 -183 3 89q1 69 -10 107
q-14 52 -50 52h-18q-13 -1 -19 -1l-6 5v27l6 8q60 -4 149 -2q166 2 149 2l8 -7v-25z" />
    <glyph glyph-name="K" unicode="K" horiz-adv-x="712" 
d="M703 5l-8 -8q-56 4 -137 2l-137 -2l-6 8v25l6 6h14l18 19q-2 12 -91 141.5t-99 136.5q-23 16 -52 14v-82q0 -16 -2.5 -57t-2.5 -62q0 -113 69 -109l8 -5v-27l-6 -8q-128 9 -256 0l-6 7v27l6 6h36q18 3 27 20q3 6 3 305v74q0 18 3.5 63t3.5 69q0 110 -69 110l-8 7v27l8 6
q51 -4 126 -2l126 2l8 -7v-25l-8 -8h-32q-36 0 -36 -174q0 -31 1 -73.5t1 -48.5h18q26 0 132 125q103 123 111 156l-21 16h-15l-5 7v24l6 8q108 -6 204 0l8 -7v-25l-8 -8q-71 0 -169 -100q-48 -50 -133 -164q23 -28 134 -179q82 -111 140 -173q23 -25 82 -25l8 -7v-25z" />
    <glyph glyph-name="L" unicode="L" horiz-adv-x="594" 
d="M603 198q0 -34 -20 -100q-28 -92 -30 -101q-355 12 -554 0l-8 9v23l6 8h50q32 5 32 28q0 54 2 161.5t2 162.5v76q0 4 1 33t1 50q0 130 -38 130h-42l-8 9v23l8 8q142 -9 296 0l10 -9v-23l-10 -8h-54q-21 0 -27.5 -8.5t-6.5 -29.5q0 -39 -2 -117.5t-2 -118.5v-111
q0 -210 4 -256h108q114 0 161.5 31.5t88.5 141.5l12 4l18 -6z" />
    <glyph glyph-name="M" unicode="M" horiz-adv-x="986" 
d="M967 7l-8 -10q-159 8 -298 0l-8 9v23l8 8h62q35 0 35 186q0 38 -1.5 89.5t-1.5 53.5l-2 284h-4q-17 -32 -145 -339q-111 -266 -145 -299q-48 52 -98 193l-84 252q-50 142 -96 195q-9 -45 -9 -115q0 -29 2 -84.5t2 -80.5q0 -5 -1 -44t-1 -68q0 -223 55 -223h44l8 -7v-25
l-10 -8q-113 9 -244 0l-8 9v25l6 6h46q48 0 61 181q4 56 4 228v173q0 47 -26 56q-8 3 -67 3l-8 7v27l8 6q110 -9 230 0l24 -17q72 -170 206 -513q170 347 219 515q14 12 106 14q63 0 125 1l6 -9v-21l-8 -10h-44q-33 0 -33 -122q0 -24 1.5 -58.5t1.5 -37.5v-155q0 -2 -1 -38
t-1 -65q0 -165 32 -165h54l6 -7v-23z" />
    <glyph glyph-name="N" unicode="N" horiz-adv-x="820" 
d="M790 688l-6 -10h-28q-48 0 -48 -395v-267l-12 -28q-52 24 -250 270l-254 322h-6v-123q0 -3 -1 -47t-1 -79q0 -294 62 -294h26l8 -9v-23l-8 -8q-100 4 -212 0l-6 9v25l6 6h34q54 0 54 280q0 36 -1 80t-1 45v129q0 58 -26.5 82.5t-83.5 24.5l-6 7v27l6 6q39 -3 96 -2l96 2
q12 0 113 -122l193 -240l130 -166h4v183q0 229 -13 266q-10 28 -34 35q-12 4 -51 4l-6 9v23l8 8q114 -8 208 0l10 -7v-23z" />
    <glyph glyph-name="O" unicode="O" horiz-adv-x="835" 
d="M791 350q0 -158 -108 -261.5t-266 -103.5q-162 0 -267 102t-105 263q0 160 107.5 270t266.5 110q162 0 267 -109t105 -271zM659 340q0 115 -63 222q-73 124 -181 124q-112 0 -177 -98q-57 -85 -57 -203q0 -125 58 -230q69 -126 186 -126q116 0 180 101q54 86 54 210z" />
    <glyph glyph-name="P" unicode="P" horiz-adv-x="599" 
d="M587 513q0 -107 -88 -161q-73 -45 -188 -45q-40 0 -80 6l1 -153q0 -16 -1.5 -39t-1.5 -31q0 -31 17 -42t73 -11l8 -7v-23l-8 -10q17 0 -145 2q-87 2 -147 -2l-8 7v25l6 8h32q25 0 33.5 5t11.5 27q7 40 8 90q0 33 -2 92q-3 63 -3 90v141q0 31 3 73.5t3 54.5q0 38 -17 52
q-20 16 -77 16l-6 7v25l6 8q52 -3 130 -2l128 2q136 0 209 -35q103 -49 103 -170zM447 515q0 71 -42 119q-45 50 -116 50q-41 0 -58 -7v-328q25 -8 72 -8q69 0 109 55q35 49 35 119z" />
    <glyph glyph-name="Q" unicode="Q" horiz-adv-x="835" 
d="M1147 -113q0 -28 -59.5 -70.5t-90.5 -42.5q-135 0 -449 119q-319 122 -407 212q-96 99 -96 262q0 153 107 260t261 107q165 0 271 -97q109 -101 109 -265q0 -129 -79 -232.5t-203 -141.5v-4q124 -50 269 -84q163 -39 277 -39q19 0 44 14t34 14zM657 340q0 130 -59 230
q-69 120 -191 120q-111 0 -174 -100q-52 -84 -52 -202q0 -121 58 -229q70 -131 182 -131q111 0 178 104q58 90 58 208z" />
    <glyph glyph-name="R" unicode="R" horiz-adv-x="722" 
d="M709 7l-8 -10q-64 6 -186 0q-30 23 -77 113q-59 114 -80 144q-49 70 -97 67l-32 -2v-54q0 -2 -1 -29v-49q0 -150 31 -150h50l8 -7v-24l-11 -9q-132 12 -269 0l-8 9v23l6 8q44 0 47 1q23 5 25 33q2 32 2 236v320q0 38 -19 47q-8 4 -52 4l-7 6v27l7 7q63 -5 157 -3l158 3
q87 0 156 -44q80 -51 80 -133q0 -166 -186 -198v-4q50 -18 100 -99l84 -136q53 -69 114 -69l8 -7v-21zM457 525q0 77 -51 118q-47 39 -125 39q-25 0 -34 -5q-14 -8 -14 -31l-2 -290q33 -5 38 -5q78 0 133 48.5t55 125.5z" />
    <glyph glyph-name="S" unicode="S" horiz-adv-x="493" 
d="M472 209q0 -96 -58.5 -160t-153.5 -64q-66 0 -109 22q-65 33 -85 38q-2 -2 -15 -18q-10 -11 -19 -12l-12 16q4 52 9 105q7 82 15 91l22 -2l6 -8q4 -75 49 -129q49 -59 121 -59q53 0 91.5 33t38.5 85q0 92 -89 139l-166 77q-89 58 -89 177q0 84 65 139q61 51 147 51
q23 0 66 -12t60 -12q19 0 28.5 10t19.5 12q9 -15 16 -87l8 -97l-6 -7l-16 -5l-10 6q-51 150 -166 150q-44 0 -78 -29t-34 -73q0 -89 89 -131l166 -69q89 -55 89 -177z" />
    <glyph glyph-name="T" unicode="T" horiz-adv-x="757" 
d="M735 549l-4 -9l-20 -7q-33 22 -47 63.5t-38 54.5q-41 22 -157 22h-28v-539q0 -74 11.5 -85.5t80.5 -11.5l6 -9v-21l-10 -10q-62 4 -154 3q-169 -3 -154 -3l-8 9v23l7 8h57q40 0 40 188q0 42 -2 100.5t-2 64.5v283h-28q-116 0 -165 -29q-29 -17 -44 -60q-13 -39 -37 -48
l-20 7l-4 10l27 110q24 91 33 95q72 -45 212 -45q20 0 60.5 1t59.5 1q127 0 148 2q83 7 140 41q12 -18 25 -99q7 -55 15 -110z" />
    <glyph glyph-name="U" unicode="U" horiz-adv-x="767" 
d="M746 687l-6 -9h-36q-15 0 -28.5 -12t-13.5 -28q0 -33 2 -108q3 -80 3 -120q0 -193 -48 -290q-65 -135 -231 -135q-132 0 -197 55q-56 47 -73 145q-10 59 -10 203q0 5 4 62t4 95q0 133 -42 133h-46l-8 9v23l10 8q147 -8 298 0l8 -7v-25l-8 -8q-58 0 -80 -22
q-17 -17 -17 -60q0 -12 1.5 -41.5t1.5 -47.5v-135q0 -119 3 -146q7 -86 41 -131q42 -56 130 -56q96 0 147 64q45 58 45 156v181q0 14 1 45t1 47q0 68 -15 101q-21 45 -75 45l-8 7v25l8 8q131 -7 224 0l10 -8v-23z" />
    <glyph glyph-name="V" unicode="V" horiz-adv-x="761" 
d="M743 686l-8 -8q-40 0 -56 -7q-21 -9 -41 -40q-61 -92 -143 -311q-103 -273 -128 -327l-20 -13q-28 17 -129 305q-120 345 -126 360q-11 25 -27 30q-8 3 -40 3l-6 9v23l6 8q133 -9 296 0l10 -8v-22l-8 -10h-54q-36 -4 -36 -26q0 -49 64 -243l88 -257h2v2l99 255
q77 198 77 240q0 29 -65 29l-7 9v23l8 8q144 -8 236 0l8 -7v-25z" />
    <glyph glyph-name="W" unicode="W" horiz-adv-x="1104" 
d="M1091 686l-7 -8q-54 4 -116 -156q-5 -11 -104 -317q-62 -187 -105 -225q-23 5 -108 255l-98 298h-4q-11 -33 -190 -534l-26 -19l-20 16l-224 645q-14 40 -70 37l-6 7v26l8 7q107 -8 252 0l8 -7v-25l-9 -8h-19l-26 -24q0 -6 149 -478l2 -1l80 225q63 182 63 206
q0 25 -18 49.5t-42 24.5q-7 0 -13 -2l-7 7v25l8 8q126 -9 261 0l7 -9v-23l-7 -8h-35l-24 -29q0 -6 146 -477h4q144 427 144 477q0 29 -61 29l-7 8v24l8 8q107 -7 200 0l6 -5v-27z" />
    <glyph glyph-name="X" unicode="X" horiz-adv-x="766" 
d="M753 6l-9 -9q-114 8 -287 0l-8 9v23l6 8q36 0 34 0q21 3 21 20q0 10 -143 252q-151 -223 -151 -237q0 -28 16 -34q4 -1 41 -1l8 -8v-23l-8 -9q-122 7 -237 0l-7 8v24l8 8q80 0 176 119l134 189l-107 171q-87 139 -99 148q-15 12 -40 14h-44l-6 7v25l6 8q158 -8 304 0
l8 -8v-23l-10 -9q-27 0 -34 -2q-19 -4 -25 -21q3 -20 53 -109q42 -76 66 -112l77 110q62 91 62 103q0 23 -14 29q-6 2 -34 2l-7 8v24l6 8q118 -7 222 0l8 -7v-26l-8 -7q-64 0 -86 -15q-37 -25 -204 -263l99 -174q62 -105 113 -162q18 -20 42 -25q11 -2 50 -2l8 -7v-24z" />
    <glyph glyph-name="Y" unicode="Y" horiz-adv-x="745" 
d="M736 688l-8 -10q-52 0 -76 -24q-14 -14 -117 -176t-103 -167v-123q0 -15 -1.5 -41t-1.5 -37q0 -37 14 -53q18 -20 64 -20l7 -7v-23l-7 -10q-155 9 -280 0l-7 9v23l7 8h41q42 0 42 141q0 30 -2 73t-2 48t-97 174t-109 182q-21 23 -68 23l-8 7v27l8 6q154 -8 280 0l8 -7
v-23l-8 -10q-34 0 -37 -1q-17 -5 -17 -29q0 -10 67 -141l82 -158l91 151q74 125 74 141q0 28 -18 34q-7 3 -42 3l-8 8v25l6 7q135 -8 218 0l8 -7v-23z" />
    <glyph glyph-name="Z" unicode="Z" horiz-adv-x="685" 
d="M674 170q-24 -41 -74 -174l-14 -11q-117 14 -280 16q109 -1 -279 -1l-15 9q2 17 215 317l253 353h-232q-67 0 -174 -160l-12 -4l-14 8l-4 8l34 103q31 85 42 88q86 -8 194 -8q61 0 159 3q123 3 159 4l16 -13q-1 -2 -474 -670h266q63 0 117 47q24 21 87 101l12 2l16 -8z
" />
    <glyph glyph-name="bracketleft" unicode="[" horiz-adv-x="265" 
d="M250 -167l-8 -8h-216l-12 11v906l10 12h210l6 -6v-24l-8 -8h-112l-10 -11l8 -841h124l8 -8v-23z" />
    <glyph glyph-name="backslash" unicode="\" horiz-adv-x="350" 
d="M349 6l-46 -20l-9 6l-293 725l46 20l10 -6z" />
    <glyph glyph-name="bracketright" unicode="]" horiz-adv-x="332" 
d="M284 -163l-12 -12h-214l-10 8v23l8 8h126l6 11v829l-10 12h-112l-8 8v24l6 6h210l10 -10v-907z" />
    <glyph glyph-name="asciicircum" unicode="^" horiz-adv-x="434" 
d="M449 253h-76l-156 317h-4l-154 -317h-74l212 422h40z" />
    <glyph glyph-name="underscore" unicode="_" horiz-adv-x="450" 
d="M475 -126h-500v50h500v-50z" />
    <glyph glyph-name="grave" unicode="`" horiz-adv-x="222" 
d="M197 503l-14 -12h-6l-129 91q-22 16 -22 38q0 17 11.5 30t28.5 13q29 0 51 -33l80 -121v-6z" />
    <glyph glyph-name="a" unicode="a" horiz-adv-x="424" 
d="M417 56q-4 -29 -34 -48.5t-60 -19.5q-64 0 -84 61h-4q-56 -61 -151 -61q-33 0 -52 28q-17 24 -17 59q0 54 39 89q25 23 86 51q66 29 89 47v52q0 72 -66 72q-33 0 -58 -18q-5 -9 -6 -17q-1 -6 0 -15q2 -11 2 -18q0 -58 -60 -58q-34 0 -34 34q0 62 76 103q65 36 132 36
q60 0 87.5 -23t28.5 -81l2 -208q0 -70 26 -70q23 0 32 16l10 4q14 -6 16 -15zM229 92v132l-74 -44q-36 -29 -36 -75q0 -62 46 -62q17 0 40.5 16.5t23.5 32.5z" />
    <glyph glyph-name="b" unicode="b" horiz-adv-x="506" 
d="M496 222q0 -89 -65 -160q-67 -74 -155 -74q-75 0 -128 26q-38 -26 -52 -26l-14 4l-4 8q4 28 3 146l-2 394q0 42 -5 56q-8 25 -38 35q-10 3 -18.5 6.5t-7.5 15.5q4 4 80.5 38.5t89.5 38.5l10 -16q-4 -124 -6 -332q53 51 137 51t132 -66q43 -58 43 -145zM389 190
q0 74 -26 122q-33 61 -101 61q-46 0 -78 -31v-138q0 -85 8 -114q18 -65 80 -65t93 54q24 44 24 111z" />
    <glyph glyph-name="c" unicode="c" horiz-adv-x="415" 
d="M397 72q-11 -32 -75 -60q-57 -24 -97 -24q-94 0 -151 56t-57 150q0 98 62 168.5t158 70.5q53 0 92 -19q50 -24 50 -72q0 -19 -12.5 -31.5t-31.5 -12.5q-30 0 -46 24l-24 44q-17 24 -52 24q-39 0 -66 -40q-24 -36 -24 -77q0 -218 142 -218q60 0 108 38l9 -1q7 -7 15 -20z
" />
    <glyph glyph-name="d" unicode="d" 
d="M502 40l-6 -12l-134 -38l-14 10l-14 46q-25 -26 -64.5 -42t-75.5 -16q-79 0 -130.5 59t-51.5 139q0 100 58 171q62 76 160 76q52 0 94 -14q-1 28 3 77.5t4 69.5q0 95 -73 108l-8 8v18l8 8q56 8 168 22q3 -3 4 -73q0 -49 -1 -133q-1 -91 -1 -87v-282q0 -48 4 -61
q8 -32 42 -32q17 0 26 -9zM324 121v177q0 43 -27 69.5t-71 26.5q-55 0 -85 -51q-24 -42 -24 -101q0 -65 28 -125q36 -73 95 -73q84 0 84 77z" />
    <glyph glyph-name="e" unicode="e" horiz-adv-x="414" 
d="M400 108q-18 -55 -72.5 -87.5t-114.5 -32.5q-100 0 -152 61q-48 58 -48 160q0 105 59.5 164.5t163.5 59.5q61 0 106 -49.5t45 -111.5q0 -20 -112 -20q-34 0 -90.5 2t-67.5 2v-32q0 -59 34 -108q39 -55 96 -55q83 0 121 58l12 5q17 -7 20 -16zM274 306q0 35 -13 60
q-17 30 -49 30q-72 0 -92 -104h121q33 0 33 14z" />
    <glyph glyph-name="f" unicode="f" horiz-adv-x="420" 
d="M418 668q0 -19 -15.5 -34t-34.5 -15q-33 0 -57.5 30.5t-42.5 30.5q-59 0 -77 -71q-8 -32 -8 -118v-70h119l8 -9l-5 -36q-6 -5 -122 -5v-259q0 -60 7.5 -69t67.5 -9l10 -9v-18l-6 -10q-106 7 -252 0l-8 8v23l10 6q6 0 16 -1h16q34 0 34 36v302h-68l-5 11l4 34q6 5 69 5
q0 131 54 213q63 96 188 96q37 0 64 -12q34 -17 34 -50z" />
    <glyph glyph-name="g" unicode="g" horiz-adv-x="477" 
d="M486 365q0 -16 -12 -28.5t-28 -12.5q-8 0 -27 11q-14 7 -28 15l-24 -6q12 -24 12 -66q0 -78 -52 -121q-47 -39 -122 -39q-26 0 -52 5q-43 -19 -43 -50q0 -40 81 -40q17 0 46 2t36 2q73 0 123 -32q60 -37 60 -106q0 -87 -90 -135q-73 -39 -168 -39q-77 0 -130 19
q-76 29 -76 92q0 70 104 113v7q-28 6 -48 26t-20 48q0 63 86 103v2q-86 52 -86 151q0 70 60 111q52 36 125 36q85 0 136 -57q47 37 85 37q52 0 52 -48zM279 296q0 100 -69 100q-82 0 -82 -139q0 -102 82 -102q69 0 69 141zM370 -145q0 91 -118 91q-78 0 -109 -9
q-62 -18 -62 -78q0 -94 153 -94q46 0 87 22q49 26 49 68z" />
    <glyph glyph-name="h" unicode="h" horiz-adv-x="510" 
d="M514 5l-8 -8q-92 7 -205 0l-8 7v24l7 6q49 0 49 50q0 8 -1 24.5t-1 25.5v108q0 139 -82 139q-34 0 -63 -26t-29 -60v-218q0 -32 6 -37.5t36 -5.5l10 -9v-18l-8 -10q-112 6 -212 0l-8 8v22l9 7q39 0 54 17q12 14 12 44q0 10 -1 32t-2 35l-2 374q0 75 -46 91q-10 2 -26 14
v10q0 5 14 13q86 48 158 66q6 -6 8 -55q1 -35 0 -93q-2 -72 -2 -63v-147h6q44 61 129 61q150 0 150 -229q0 -31 -3 -83.5t-3 -69.5t52 -17l10 -7v-22z" />
    <glyph glyph-name="i" unicode="i" horiz-adv-x="287" 
d="M191 632q0 -30 -20.5 -48t-51.5 -18q-27 0 -47.5 17.5t-20.5 44.5q0 28 24 46q21 17 50 17q27 0 46.5 -16.5t19.5 -42.5zM266 7l-8 -10h-229q-8 0 -8 29l10 8q41 0 52.5 7.5t11.5 31.5q0 6 -1 27t-1 36v152q0 33 -16 46q-3 3 -31 14q-16 7 -15 23q7 10 76 35q65 24 85 27
q6 -2 7 -26q1 -17 0 -45q-1 -36 -1 -31v-208q0 -89 18 -89q8 0 19 1t14 1q18 0 17 -29z" />
    <glyph glyph-name="j" unicode="j" horiz-adv-x="296" 
d="M290 638q0 -30 -22.5 -49t-53.5 -19q-30 0 -52 19t-22 49q0 29 25 48t55 19q29 0 49.5 -19t20.5 -48zM288 417q-6 -30 -6 -87q0 -28 2.5 -101t2.5 -114q0 -177 -36 -267q-49 -123 -171 -123q-29 0 -49 13q-25 15 -25 42q0 18 13 34t31 16q24 0 50.5 -28t35.5 -28
q45 0 45 188v42l-1 28l-2 242q0 34 -15 48q-9 10 -45 24l-6 9v10q6 7 82 37.5t86 30.5z" />
    <glyph glyph-name="k" unicode="k" horiz-adv-x="560" 
d="M549 5l-10 -8q-88 7 -210 0l-8 10v17l8 8h8l10 14l-70 94q-53 67 -80 68v-149q0 -27 42 -25l10 -9v-20l-8 -8q-101 8 -199 0l-7 10v19l10 8q53 0 53 85q0 16 -2 46.5t-2 42.5l-2 365q0 44 -17 55l-50 25v15q10 9 170 62q7 -3 8 -16q3 -31 3 -70t-4.5 -119t-4.5 -117v-166
q33 4 81 52q46 45 58 80l-19 13h-9l-7 8v21l8 8q106 -8 187 0l7 -11v-18l-8 -8q-53 0 -111 -44q-6 -5 -91 -84l114 -133q83 -87 134 -92l8 -9v-20z" />
    <glyph glyph-name="l" unicode="l" horiz-adv-x="299" 
d="M293 7l-6 -10q-128 7 -246 0l-8 10v19q0 8 14 8q35 0 42 3q21 6 21 34v324q0 16 2 50.5t2 52.5q0 116 -79 139l-6 8v13q2 2 86 36t94 36q8 -2 10 -18q5 -36 5 -84q0 -39 -4.5 -117t-4.5 -113v-229q0 -15 -1.5 -39.5t-1.5 -34.5q0 -31 12 -45q16 -16 57 -16l12 -9v-18z
" />
    <glyph glyph-name="m" unicode="m" horiz-adv-x="847" 
d="M806 6l-8 -9q-86 8 -194 0l-8 8v21l8 8q41 -2 41 68v22q-1 14 -1 19v119q0 54 -13 79q-19 34 -69 34q-43 0 -66 -37q-20 -32 -20 -77v-194q0 -25 11 -31q4 -2 33 -2l10 -7v-22l-6 -8q-92 8 -199 0l-7 8v19l8 10q32 0 39 8t7 39v173q0 62 -10 85q-17 36 -70 36
q-43 0 -67 -37q-21 -31 -21 -77v-180q0 -32 6.5 -39.5t35.5 -7.5l10 -6v-23l-8 -8q-94 8 -200 0l-8 9v21l12 7q24 -1 32 2q16 5 16 25v209q0 34 -13 51q-7 9 -24.5 17t-20.5 17v10q3 7 63 36.5t75 31.5l12 -14l6 -58h4q57 72 144 72q78 0 118 -74h6q57 74 140 74
q143 0 143 -207q0 -32 -3.5 -86.5t-3.5 -74.5q0 -23 16 -29q7 -2 36 -2l8 -7v-21z" />
    <glyph glyph-name="n" unicode="n" horiz-adv-x="580" 
d="M541 4l-8 -7q-103 8 -206 0l-8 12v17q0 7 10 8h16q20 1 24 24.5t4 89.5v127q0 51 -17 74q-20 26 -69 26q-85 0 -85 -98v-208q0 -24 6.5 -29.5t30.5 -5.5l10 -9v-18l-8 -10q-92 8 -194 0l-6 10v19l10 8q25 0 30 1q16 4 16 20v227q0 31 -25 47q-30 21 -33 26v8q4 8 63 36
q53 25 77 34q12 -4 16 -28l4 -36h6q55 64 130 64q87 0 123 -60q27 -47 27 -138q0 -31 -4 -90t-4 -82q0 -29 22 -29q4 0 11 1t10 1q23 0 21 -32z" />
    <glyph glyph-name="o" unicode="o" 
d="M479 214q0 -93 -68 -159.5t-162 -66.5q-97 0 -156.5 65.5t-59.5 163.5q0 90 68 153t158 63q92 0 156 -63.5t64 -155.5zM357 217q0 56 -24 109q-30 67 -80 67q-106 0 -106 -179q0 -184 110 -184q55 0 82 71q18 50 18 116z" />
    <glyph glyph-name="p" unicode="p" horiz-adv-x="505" 
d="M491 238q0 -101 -58 -173q-62 -77 -160 -77q-50 0 -88 18l2 -184q0 -49 8 -55.5t56 -6.5l8 -8v-22l-10 -8q-105 8 -226 0l-8 8v23l6 7q37 0 50 12q11 9 11 34q0 6 -1 24v28v416q0 31 -15 47q-7 7 -26.5 16t-22.5 20v10q3 8 66.5 35.5t83.5 30.5q14 -10 16 -62h2
q50 62 136 62q78 0 126 -60q44 -55 44 -135zM388 174q0 74 -23 128q-31 73 -94 73q-55 0 -86 -45v-223q0 -41 32 -62q28 -18 72 -18q51 0 77 51q22 40 22 96z" />
    <glyph glyph-name="q" unicode="q" horiz-adv-x="498" 
d="M486 -270l-8 -8q-45 3 -112 2l-111 -2q-8 0 -8 30l12 8h32q32 0 32 100q0 19 -1.5 48t-1.5 33v89h-4q-51 -42 -126 -42q-85 0 -134 61q-44 56 -44 144q0 96 63 166q65 74 159 74q50 0 108 -22q80 23 84 22l10 -8v-16q0 -35 -6 -107t-6 -108v-238q0 -141 4 -169t23 -28
q3 0 9.5 1t9.5 1q10 0 16 -6v-25zM319 75v233q0 34 -27.5 62t-60.5 28q-49 0 -81 -51q-29 -45 -29 -97q0 -72 22 -129q31 -79 92 -79q51 0 84 33z" />
    <glyph glyph-name="r" unicode="r" horiz-adv-x="382" 
d="M371 389q0 -21 -16.5 -38t-37.5 -17q-12 0 -31.5 8t-30.5 8q-25 0 -41 -28q-13 -23 -13 -50v-195q0 -44 36 -44h16q13 1 20 1l8 -7v-23l-7 -7h-241l-7 7v22l9 8h40q21 4 21 28v198q0 40 -13 58q-7 11 -26 19.5t-25 19.5v6q0 5 8 9q60 30 137 61q8 -3 18 -85h4
q54 91 120 91q22 0 37 -14t15 -36z" />
    <glyph glyph-name="s" unicode="s" horiz-adv-x="349" 
d="M324 133q0 -68 -51 -108q-47 -37 -116 -37q-85 0 -105 27q-12 16 -27 112l3 8l19 6l9 -3q42 -71 45 -75q29 -36 74 -36q29 0 50 17t21 45q0 42 -57 65l-104 42q-57 33 -57 98q0 64 46 103q44 36 109 36q27 0 64 -9q48 -12 52 -31l13 -69l-1 -11l-19 -9q-8 1 -26 24
q-24 31 -38 43q-26 23 -55 23q-28 0 -47 -15q-22 -16 -22 -43q0 -39 57 -59q100 -37 106 -40q57 -33 57 -104z" />
    <glyph glyph-name="t" unicode="t" horiz-adv-x="356" 
d="M337 414l-10 -42l-10 -6h-121q-3 -64 -3 -129v-98q0 -95 53 -95q15 0 34 6q25 8 31 9q7 -2 11 -17l-4 -14q-56 -40 -126 -40q-106 0 -106 137q0 19 2 54.5t2 49.5v137q-47 -1 -41 -1q-31 1 -31 15q0 9 19 19q62 34 137 127q7 9 16 10l12 -14l-4 -100h132z" />
    <glyph glyph-name="u" unicode="u" 
d="M509 36l-5 -9q-48 -17 -144 -39l-14 12l-6 57h-6q-18 -30 -56.5 -49.5t-75.5 -19.5q-85 0 -117 62q-24 45 -24 136q0 17 1 48t1 44q0 69 -8 90q-6 15 -21 16q-20 1 -30 11v18q0 8 12 8q11 0 49 -1q30 -1 49 0q27 1 48 5l10 -12q0 -34 -3 -119q-2 -78 -2 -119
q0 -60 13 -89q20 -42 72 -42q27 0 54 22t27 49v237q0 29 -31.5 32.5t-31.5 28.5q0 8 12 8q131 0 154 4l8 -10q0 -21 -3 -67t-3 -69v-127q0 -9 -1 -24v-21q0 -27 10 -37q12 -13 47 -13l12 -4z" />
    <glyph glyph-name="v" unicode="v" horiz-adv-x="535" 
d="M533 395l-7 -8q-41 0 -55 -11q-28 -22 -107 -213q-74 -178 -95 -178q-23 0 -87 162q-77 197 -81 203q-15 27 -23.5 32t-37.5 5l-7 8v21l10 8h210l10 -8v-19l-8 -10q-38 0 -38 -17q0 -37 84 -249h6q89 208 89 238q0 28 -41 28l-6 8v22l8 7q157 -1 166 0l10 -7v-22z" />
    <glyph glyph-name="w" unicode="w" horiz-adv-x="751" 
d="M746 395l-7 -8q-43 0 -53 -17q-7 -12 -86 -213q-68 -172 -88 -172q-16 0 -63 130l-57 164h-6l-62 -161q-53 -128 -78 -133q-20 11 -83 175l-73 201q-7 18 -22 23q-9 3 -33 3l-7 7v22l8 8h190l8 -8v-22l-8 -7h-10l-12 -12q1 -16 33 -120l41 -128h6q80 203 80 212l-10 32
q-26 13 -37 10l-7 7v22l9 8q101 -8 179 0l10 -8v-21l-8 -8q-31 1 -31 -17q0 -3 1 -6l74 -219h4l43 109q30 77 30 109q0 30 -41 30l-6 7v22l8 8q88 -7 156 0l8 -7v-22z" />
    <glyph glyph-name="x" unicode="x" 
d="M491 4l-7 -7h-197l-8 8v21l8 8h8l13 15q-1 9 -67 118q-71 -84 -78 -121q3 -12 31 -12q9 -8 5 -29l-8 -8q-33 3 -80 2q-86 -2 -80 -2l-8 9v20l8 8q55 0 108 60l79 107q-47 79 -55 90q-36 55 -65 83q-14 13 -55 13l-8 7v22l8 8q85 -7 194 0l6 -8v-20l-5 -7h-7l-10 -10
q5 -24 26 -57l34 -53l39 49q28 39 28 52q0 19 -27 19l-6 5v23l7 7q37 -1 74 -3q45 -1 75 3l8 -7v-22l-8 -8q-46 0 -96 -54q-19 -21 -71 -94l79 -123q59 -82 103 -82l5 -7v-23z" />
    <glyph glyph-name="y" unicode="y" horiz-adv-x="527" 
d="M510 395l-6 -8q-52 2 -128 -169l-135 -320q-81 -173 -145 -173q-25 0 -42.5 15t-17.5 40q0 20 14 35t34 15q12 0 30.5 -7t25.5 -8q17 4 54 77q36 70 36 90q0 36 -71 217q-74 188 -99 188h-20l-8 8v22l8 7q42 -4 103 -3q52 2 103 3l8 -8v-22l-7 -7q-30 3 -30 -21
q0 -11 32.5 -120.5t40.5 -128.5h4q95 206 95 246q0 17 -13 22q-6 2 -26 2l-8 7v22l8 8q139 -1 153 0l7 -8v-21z" />
    <glyph glyph-name="z" unicode="z" horiz-adv-x="439" 
d="M441 125l-72 -137q-37 12 -338 12l-10 7q1 8 248 382h-88q-53 0 -91 -33q-15 -14 -65 -78l-10 -3l-14 8l-2 11l60 143q69 -16 167 -17q-71 1 169 1l12 -10q0 -3 -252 -377h114q58 0 146 108l11 3l13 -10z" />
    <glyph glyph-name="braceleft" unicode="{" horiz-adv-x="288" 
d="M288 -161l-14 -14q-105 6 -155 32q-73 39 -73 131q0 35 19 100.5t19 99.5q0 84 -68 95l-16 18l16 18q68 0 68 81q0 34 -19 98t-19 97q0 159 224 159q15 0 18 -14l-12 -18q-132 -7 -132 -114q0 -30 11 -86.5t11 -85.5q0 -50 -24 -79l-60 -56q0 -7 22 -23q27 -21 40 -40
q22 -31 22 -74q0 -30 -11 -88.5t-11 -88.5q0 -58 37.5 -93.5t96.5 -35.5z" />
    <glyph glyph-name="bar" unicode="|" horiz-adv-x="264" 
d="M158 -15h-52l-6 10l6 735h51l7 -10z" />
    <glyph glyph-name="braceright" unicode="}" horiz-adv-x="313" 
d="M301 301l-18 -20q-39 0 -54 -22q-12 -18 -12 -59q0 -35 19 -103t19 -104q0 -90 -71 -133q-57 -35 -153 -35l-18 16l12 17q132 6 132 122q0 32 -11 93t-11 91q0 50 25 80l59 57q-44 35 -60 57q-24 34 -24 78q0 27 11 82t11 83q0 56 -39 89q-36 30 -93 32l-12 16
q3 16 18 16q90 0 150 -33q74 -42 74 -125q0 -32 -19 -92.5t-19 -91.5q0 -85 66 -95z" />
    <glyph glyph-name="asciitilde" unicode="~" horiz-adv-x="437" 
d="M415 323q0 -60 -21 -102q-26 -55 -79 -55q-44 0 -99.5 39t-86.5 39q-44 0 -44 -82h-62q0 59 22 102q28 55 82 55q45 0 103 -39.5t79 -39.5q44 0 44 83h62z" />
    <glyph glyph-name="Adieresis" unicode="&#xc4;" horiz-adv-x="753" 
d="M553 850q0 -22 -16 -39t-38 -17q-62 0 -62 60q0 24 18.5 38.5t43.5 14.5q23 0 38.5 -16.5t15.5 -40.5zM339 850q0 -23 -15 -39.5t-37 -16.5q-62 0 -62 60q0 24 18.5 38.5t43.5 14.5q23 0 37.5 -16.5t14.5 -40.5zM758 9l-10 -12h-288l-10 12v20l8 8h36q22 4 22 23
q0 22 -62 218h-232l-39 -107q-22 -65 -25 -109q15 -25 46 -25h12q8 1 12 1q12 0 18 -6v-25l-8 -10q-144 8 -236 0q-10 12 -6 32l6 8q42 0 55 5q19 8 39 41q29 48 116 288q91 250 91 300q0 6 -1 8l10 10q30 8 114 60q26 -35 108 -313q84 -291 120 -352q18 -33 39 -41
q15 -6 57 -6l8 -7v-21zM444 318l-48 160q-38 131 -46 138q-8 0 -13 -13q-47 -110 -101 -285h208z" />
    <glyph glyph-name="Aring" unicode="&#xc5;" horiz-adv-x="753" 
d="M499 855q0 -45 -39 -70q-33 -22 -80 -22q-44 0 -76 19q-38 23 -38 63q0 44 41 70q35 22 82 22q44 0 74 -18q36 -22 36 -64zM758 9l-10 -12h-288l-10 12v20l8 8h36q22 4 22 23q0 22 -62 218h-232q-64 -184 -64 -216q0 -19 25 -23q2 -1 40 -2q18 0 23 -5v-25l-8 -10h-236
q-10 12 -6 32l6 8q42 0 55 6q19 7 39 40q28 48 115 287q92 251 92 301q0 6 -1 8l10 9q54 6 61 8q35 6 60 19q18 -12 104 -291q93 -298 117 -340q18 -33 39 -41q15 -6 57 -6l8 -7v-21zM431 850q0 54 -44 54q-23 0 -35.5 -15.5t-12.5 -38.5q0 -54 46 -54t46 54zM444 318
l-48 160q-38 131 -46 138q-8 0 -13 -13q-47 -110 -101 -285h208z" />
    <glyph glyph-name="Ccedilla" unicode="&#xc7;" horiz-adv-x="691" 
d="M663 155q-112 -163 -284 -169l-48 -59q32 -6 54 -23q28 -20 28 -49q0 -52 -71 -79q-53 -20 -115 -20q-19 0 -22 20q10 10 41 17q37 7 48 13q23 13 23 40q0 39 -62 51l71 90q-149 8 -240 111t-91 254q0 161 101 269.5t261 108.5q55 0 112 -17q4 -1 105 -37q7 5 13 32l16 6
l14 -16q1 -33 12.5 -103.5t11.5 -106.5l-4 -10l-19 -6q-4 2 -35 63q-35 65 -77 100q-63 53 -151 53q-112 0 -173 -93q-53 -80 -53 -198q0 -131 65 -229q75 -112 199 -112q78 0 134 29q37 19 74 57q33 35 43 38l17 -15z" />
    <glyph glyph-name="Eacute" unicode="&#xc9;" horiz-adv-x="641" 
d="M490 903q0 -32 -37 -49l-168 -78h-7l-12 16l2 8l137 132q18 17 42 17q18 0 30.5 -14t12.5 -32zM624 164l-48 -152l-22 -15q-82 3 -183 3q-65 0 -184 -1q-136 -2 -183 -2l-8 8v24l10 8q8 0 22.5 -1t20.5 -1q41 0 41 46v348q0 17 2 71q1 46 0 73q-1 40 -6 69q-6 37 -46 37
h-17q-12 -1 -19 -1l-6 7v26l6 7q-16 0 263 -3q158 -1 263 3l8 -6q14 -54 46 -161l-3 -11l-18 -8l-9 5q-20 11 -54.5 55.5t-55.5 57.5q-43 27 -110 31h-118l-2 -292q94 0 118 7q57 18 58 91l8 8l26 -2l6 -8q-9 -78 4 -220l-8 -7l-22 -4l-8 7q-19 71 -65 87q-19 6 -117 6v-43
q-1 -39 -1 -64q0 -192 45 -205q28 -8 78 -8q106 0 153 30q29 19 106 116l11 4l16 -10z" />
    <glyph glyph-name="Ntilde" unicode="&#xd1;" horiz-adv-x="820" 
d="M595 895q0 -33 -22 -63q-24 -33 -56 -33q-28 0 -82 16t-82 16q-23 0 -32.5 -24t-33.5 -23q-4 4 -4 18q0 36 26.5 69.5t61.5 33.5q28 0 81.5 -17t80.5 -17q28 0 36 36l6 6h18q2 -4 2 -18zM790 688l-6 -10h-28q-48 0 -48 -395v-267l-12 -28q-52 24 -250 270l-254 322h-6
v-123q0 -3 -1 -47t-1 -79q0 -294 62 -294h26l8 -9v-23l-8 -8q-100 4 -212 0l-6 9v25l6 6h34q54 0 54 280q0 36 -1 80t-1 45v129q0 58 -26.5 82.5t-83.5 24.5l-6 7v27l6 6q39 -3 96 -2l96 2q12 0 113 -122l193 -240l130 -166h4v183q0 229 -13 266q-10 28 -34 35q-12 4 -51 4
l-6 9v23l8 8q114 -8 208 0l10 -7v-23z" />
    <glyph glyph-name="Odieresis" unicode="&#xd6;" horiz-adv-x="783" 
d="M556 850q0 -22 -16 -39t-38 -17q-62 0 -62 60q0 24 18.5 38.5t43.5 14.5q23 0 38.5 -16.5t15.5 -40.5zM342 850q0 -23 -15 -39.5t-37 -16.5q-62 0 -62 60q0 24 18.5 38.5t43.5 14.5q23 0 37.5 -16.5t14.5 -40.5zM765 350q0 -158 -108 -261.5t-266 -103.5q-162 0 -267 102
t-105 263q0 160 107.5 270t266.5 110q162 0 267 -109t105 -271zM633 340q0 115 -63 222q-73 124 -181 124q-112 0 -177 -98q-57 -85 -57 -203q0 -125 58 -230q69 -126 186 -126q116 0 180 101q54 86 54 210z" />
    <glyph glyph-name="Udieresis" unicode="&#xdc;" horiz-adv-x="705" 
d="M556 850q0 -22 -16 -39t-38 -17q-62 0 -62 60q0 24 18.5 38.5t43.5 14.5q23 0 38.5 -16.5t15.5 -40.5zM342 850q0 -23 -15 -39.5t-37 -16.5q-62 0 -62 60q0 24 18.5 38.5t43.5 14.5q23 0 37.5 -16.5t14.5 -40.5zM716 687l-6 -9h-36q-16 0 -29 -12t-13 -28q-1 -33 2 -108
q2 -80 2 -120q0 -193 -47 -290q-66 -135 -231 -135q-133 0 -198 55q-55 47 -72 145q-10 59 -10 203q0 5 3.5 62t3.5 95q0 133 -41 133h-46l-8 9v23l10 8q146 -8 298 0l8 -7v-25l-8 -8q-59 0 -80 -22q-18 -17 -18 -60q0 -12 2 -41.5t2 -47.5v-135q0 -119 2 -146
q8 -86 41 -131q42 -56 131 -56q96 0 146 64q46 58 46 156v181q0 14 1 45t1 47q0 68 -16 101q-21 45 -74 45l-8 7v25l8 8q130 -7 224 0l10 -8v-23z" />
    <glyph glyph-name="aacute" unicode="&#xe1;" horiz-adv-x="424" 
d="M342 620q0 -24 -23 -40l-128 -89h-8l-12 10v8l81 121q22 33 49 33q17 0 29 -13t12 -30zM417 56q-4 -29 -34 -48.5t-60 -19.5q-64 0 -84 61h-4q-56 -61 -151 -61q-33 0 -52 28q-17 24 -17 59q0 54 39 89q25 23 86 51q66 29 89 47v52q0 72 -66 72q-33 0 -58 -18
q-5 -9 -6 -17q-1 -6 0 -15q2 -11 2 -18q0 -58 -60 -58q-34 0 -34 34q0 62 76 103q65 36 132 36q60 0 87.5 -23t28.5 -81l2 -208q0 -70 26 -70q23 0 32 16l10 4q14 -6 16 -15zM229 92v132l-74 -44q-36 -29 -36 -75q0 -62 46 -62q17 0 40.5 16.5t23.5 32.5z" />
    <glyph glyph-name="agrave" unicode="&#xe0;" horiz-adv-x="424" 
d="M259 503l-14 -12h-6l-129 91q-22 16 -22 38q0 17 11.5 30t28.5 13q29 0 51 -33l80 -121v-6zM417 56q-4 -29 -34 -48.5t-60 -19.5q-64 0 -84 61h-4q-56 -61 -151 -61q-33 0 -52 28q-17 24 -17 59q0 54 39 89q25 23 86 51q66 29 89 47v52q0 72 -66 72q-33 0 -58 -18
q-5 -9 -6 -17q-1 -6 0 -15q2 -11 2 -18q0 -58 -60 -58q-34 0 -34 34q0 62 76 103q65 36 132 36q60 0 87.5 -23t28.5 -81l2 -208q0 -70 26 -70q23 0 32 16l10 4q14 -6 16 -15zM229 92v132l-74 -44q-36 -29 -36 -75q0 -62 46 -62q17 0 40.5 16.5t23.5 32.5z" />
    <glyph glyph-name="acircumflex" unicode="&#xe2;" horiz-adv-x="424" 
d="M331 503q-4 -5 -16 -10l-110 67l-55 -38q-42 -29 -55 -29l-8 10q0 10 55 83t65 73q6 0 62 -70l61 -77zM417 56q-4 -29 -34 -48.5t-60 -19.5q-64 0 -84 61h-4q-56 -61 -151 -61q-33 0 -52 28q-17 24 -17 59q0 54 39 89q25 23 86 51q66 29 89 47v52q0 72 -66 72
q-33 0 -58 -18q-5 -9 -6 -17q-1 -6 0 -15q2 -11 2 -18q0 -58 -60 -58q-34 0 -34 34q0 62 76 103q65 36 132 36q60 0 87.5 -23t28.5 -81l2 -208q0 -70 26 -70q23 0 32 16l10 4q14 -6 16 -15zM229 92v132l-74 -44q-36 -29 -36 -75q0 -62 46 -62q17 0 40.5 16.5t23.5 32.5z" />
    <glyph glyph-name="adieresis" unicode="&#xe4;" horiz-adv-x="424" 
d="M338 563q0 -23 -15 -37.5t-38 -14.5q-59 0 -59 56q0 24 17 39t42 15q24 0 38.5 -16.5t14.5 -41.5zM160 563q0 -52 -53 -52q-59 0 -59 56q0 24 17 39t42 15q24 0 38.5 -16.5t14.5 -41.5zM417 56q-4 -29 -34 -48.5t-60 -19.5q-64 0 -84 61h-4q-56 -61 -151 -61
q-33 0 -52 28q-17 24 -17 59q0 54 39 89q25 23 86 51q66 29 89 47v52q0 72 -66 72q-33 0 -58 -18q-5 -9 -6 -17q-1 -6 0 -15q2 -11 2 -18q0 -58 -60 -58q-34 0 -34 34q0 62 76 103q65 36 132 36q60 0 87.5 -23t28.5 -81l2 -208q0 -70 26 -70q23 0 32 16l10 4q14 -6 16 -15z
M229 92v132l-74 -44q-36 -29 -36 -75q0 -62 46 -62q17 0 40.5 16.5t23.5 32.5z" />
    <glyph glyph-name="atilde" unicode="&#xe3;" horiz-adv-x="424" 
d="M328 598q0 -28 -26.5 -56t-54.5 -28q-23 0 -66 14t-66 14q-33 0 -38 -39l-6 -4h-19q-3 4 -3 16q0 32 24.5 63.5t55.5 31.5q24 0 69 -15t69 -15q21 0 28.5 18.5t29.5 17.5q3 -2 3 -18zM417 56q-4 -29 -34 -48.5t-60 -19.5q-64 0 -84 61h-4q-56 -61 -151 -61q-33 0 -52 28
q-17 24 -17 59q0 54 39 89q25 23 86 51q66 29 89 47v52q0 72 -66 72q-33 0 -58 -18q-5 -9 -6 -17q-1 -6 0 -15q2 -11 2 -18q0 -58 -60 -58q-34 0 -34 34q0 62 76 103q65 36 132 36q60 0 87.5 -23t28.5 -81l2 -208q0 -70 26 -70q23 0 32 16l10 4q14 -6 16 -15zM229 92v132
l-74 -44q-36 -29 -36 -75q0 -62 46 -62q17 0 40.5 16.5t23.5 32.5z" />
    <glyph glyph-name="aring" unicode="&#xe5;" horiz-adv-x="424" 
d="M304 586q0 -43 -37 -67q-31 -20 -76 -20q-41 0 -70 18q-35 21 -35 59q0 40 38 64q32 21 75 21q39 0 69 -18q36 -20 36 -57zM417 56q-4 -29 -34 -48.5t-60 -19.5q-64 0 -84 61h-4q-56 -61 -151 -61q-33 0 -52 28q-17 24 -17 59q0 54 39 89q25 23 86 51q66 29 89 47v52
q0 72 -66 72q-33 0 -58 -18q-5 -9 -6 -17q-1 -6 0 -15q2 -11 2 -18q0 -58 -60 -58q-34 0 -34 34q0 62 76 103q65 36 132 36q60 0 87.5 -23t28.5 -81l2 -208q0 -70 26 -70q23 0 32 16l10 4q14 -6 16 -15zM241 582q0 46 -44 46q-46 0 -46 -48q0 -51 44 -51q46 0 46 53zM229 92
v132l-74 -44q-36 -29 -36 -75q0 -62 46 -62q17 0 40.5 16.5t23.5 32.5z" />
    <glyph glyph-name="ccedilla" unicode="&#xe7;" horiz-adv-x="415" 
d="M397 72q0 -21 -61 -51q-52 -26 -81 -30l-50 -58q30 -7 50 -24q24 -21 24 -48q0 -50 -64 -78q-50 -21 -108 -21q-20 0 -20 20q0 9 29 14q40 6 53 12q28 13 28 43q0 38 -64 50l70 89q-85 4 -135.5 61t-50.5 143q0 97 62.5 168t157.5 71q53 0 92 -19q50 -24 50 -72
q0 -19 -12.5 -31.5t-31.5 -12.5q-30 0 -46 24l-24 44q-17 24 -52 24q-39 0 -66 -40q-24 -36 -24 -77q0 -218 142 -218q60 0 108 38l9 -1q15 -15 15 -20z" />
    <glyph glyph-name="eacute" unicode="&#xe9;" horiz-adv-x="414" 
d="M347 620q0 -24 -23 -40l-128 -89h-8l-12 10v8l81 121q23 33 49 33q17 0 29 -13t12 -30zM400 108q-18 -55 -74 -89q-52 -31 -113 -31q-100 0 -151 61q-49 58 -49 160q0 105 59.5 164.5t163.5 59.5q62 0 106.5 -49.5t44.5 -111.5q0 -20 -111 -20q-34 0 -91 2t-68 2v-32
q0 -59 35 -108q38 -55 95 -55q84 0 121 58l12 5q17 -7 20 -16zM274 306q0 35 -13 60q-16 30 -49 30q-72 0 -92 -104h121q33 0 33 14z" />
    <glyph glyph-name="egrave" unicode="&#xe8;" horiz-adv-x="414" 
d="M264 503l-14 -12h-6l-129 91q-22 16 -22 38q0 17 12 30t28 13q30 0 51 -33l80 -121v-6zM400 108q-18 -55 -74 -89q-52 -31 -113 -31q-100 0 -151 61q-49 58 -49 160q0 105 59.5 164.5t163.5 59.5q62 0 106.5 -49.5t44.5 -111.5q0 -20 -111 -20q-34 0 -91 2t-68 2v-32
q0 -59 35 -108q38 -55 95 -55q84 0 121 58l12 5q17 -7 20 -16zM274 306q0 35 -13 60q-16 30 -49 30q-72 0 -92 -104h121q33 0 33 14z" />
    <glyph glyph-name="ecircumflex" unicode="&#xea;" horiz-adv-x="414" 
d="M340 503q-4 -5 -16 -10l-110 67l-55 -38q-42 -29 -55 -29l-8 10q0 10 55.5 83t64.5 73q7 0 63 -70l60 -77zM400 108q-18 -55 -74 -89q-52 -31 -113 -31q-100 0 -151 61q-49 58 -49 160q0 105 59.5 164.5t163.5 59.5q62 0 106.5 -49.5t44.5 -111.5q0 -20 -111 -20
q-34 0 -91 2t-68 2v-32q0 -59 35 -108q38 -55 95 -55q84 0 121 58l12 5q17 -7 20 -16zM274 306q0 35 -13 60q-16 30 -49 30q-72 0 -92 -104h121q33 0 33 14z" />
    <glyph glyph-name="edieresis" unicode="&#xeb;" horiz-adv-x="414" 
d="M363 563q0 -23 -14.5 -37.5t-38.5 -14.5q-59 0 -59 56q0 24 17.5 39t41.5 15q25 0 39 -16.5t14 -41.5zM185 563q0 -52 -53 -52q-59 0 -59 56q0 24 17.5 39t41.5 15q25 0 39 -16.5t14 -41.5zM400 108q-18 -55 -74 -89q-52 -31 -113 -31q-100 0 -151 61q-49 58 -49 160
q0 105 59.5 164.5t163.5 59.5q62 0 106.5 -49.5t44.5 -111.5q0 -20 -111 -20q-34 0 -91 2t-68 2v-32q0 -59 35 -108q38 -55 95 -55q84 0 121 58l12 5q17 -7 20 -16zM274 306q0 35 -13 60q-16 30 -49 30q-72 0 -92 -104h121q33 0 33 14z" />
    <glyph glyph-name="iacute" unicode="&#xed;" horiz-adv-x="287" 
d="M259 620q0 -24 -23 -40l-128 -89h-8l-12 10v8l81 121q22 33 49 33q17 0 29 -13t12 -30zM266 7l-8 -10h-229q-8 0 -8 29l10 8q41 0 52.5 7.5t11.5 31.5q0 6 -1 27t-1 36v152q0 33 -16 46q-3 3 -31 14q-16 7 -15 23q7 10 76 35q65 24 85 27q6 -2 7 -26q1 -17 0 -45
q-1 -36 -1 -31v-208q0 -89 18 -89q8 0 19 1t14 1q18 0 17 -29z" />
    <glyph glyph-name="igrave" unicode="&#xec;" horiz-adv-x="287" 
d="M187 503l-14 -12h-6l-129 91q-22 16 -22 38q0 17 11.5 30t28.5 13q29 0 51 -33l80 -121v-6zM271 7l-8 -10h-229q-8 0 -8 29l10 8q41 0 52.5 7.5t11.5 31.5q0 6 -1 27t-1 36v152q0 33 -16 46q-3 3 -31 14q-16 7 -15 23q7 10 76 35q65 24 85 27q6 -2 7 -26q1 -17 0 -45
q-1 -36 -1 -31v-208q0 -89 18 -89q8 0 19 1t14 1q18 0 17 -29z" />
    <glyph glyph-name="icircumflex" unicode="&#xee;" horiz-adv-x="287" 
d="M261 503q-4 -5 -16 -10l-110 67l-55 -38q-42 -29 -55 -29l-8 10q0 10 55 83t65 73q7 0 62 -70l61 -77zM270 7l-8 -10h-229q-8 0 -8 29l10 8q41 0 52.5 7.5t11.5 31.5q0 6 -1 27t-1 36v152q0 33 -16 46q-3 3 -31 14q-16 7 -15 23q7 10 76 35q65 24 85 27q6 -2 7 -26
q1 -17 0 -45q-1 -36 -1 -31v-208q0 -89 18 -89q8 0 19 1t14 1q18 0 17 -29z" />
    <glyph glyph-name="idieresis" unicode="&#xef;" horiz-adv-x="287" 
d="M289 563q0 -23 -15 -37.5t-38 -14.5q-59 0 -59 56q0 24 17.5 39t41.5 15q25 0 39 -16.5t14 -41.5zM111 563q0 -52 -53 -52q-60 0 -60 56q0 24 18 39t42 15q25 0 39 -16.5t14 -41.5zM270 7l-8 -10h-229q-8 0 -8 29l10 8q41 0 52.5 7.5t11.5 31.5q0 6 -1 27t-1 36v152
q0 33 -16 46q-3 3 -31 14q-16 7 -15 23q7 10 76 35q65 24 85 27q6 -2 7 -26q1 -17 0 -45q-1 -36 -1 -31v-208q0 -89 18 -89q8 0 19 1t14 1q18 0 17 -29z" />
    <glyph glyph-name="ntilde" unicode="&#xf1;" horiz-adv-x="580" 
d="M431 598q0 -28 -26.5 -56t-54.5 -28q-23 0 -66 14t-66 14q-32 0 -38 -39l-6 -4h-19q-3 4 -3 16q0 32 24.5 63.5t55.5 31.5q24 0 69.5 -15t68.5 -15q22 0 29 18.5t29 17.5q3 -2 3 -18zM541 4l-8 -7q-103 8 -206 0l-8 12v17q0 7 10 8h16q20 1 24 24.5t4 89.5v127
q0 51 -17 74q-20 26 -69 26q-85 0 -85 -98v-208q0 -24 6.5 -29.5t30.5 -5.5l10 -9v-18l-8 -10q-92 8 -194 0l-6 10v19l10 8q25 0 30 1q16 4 16 20v227q0 31 -25 47q-30 21 -33 26v8q4 8 63 36q53 25 77 34q12 -4 16 -28l4 -36h6q55 64 130 64q87 0 123 -60q27 -47 27 -138
q0 -31 -4 -90t-4 -82q0 -29 22 -29q4 0 11 1t10 1q23 0 21 -32z" />
    <glyph glyph-name="oacute" unicode="&#xf3;" 
d="M385 620q0 -24 -23 -40l-128 -89h-8l-12 10v8l81 121q22 33 49 33q17 0 29 -13t12 -30zM479 214q0 -93 -68 -159.5t-162 -66.5q-97 0 -156.5 65.5t-59.5 163.5q0 90 68 153t158 63q92 0 156 -63.5t64 -155.5zM357 217q0 56 -24 109q-30 67 -80 67q-106 0 -106 -179
q0 -184 110 -184q55 0 82 71q18 50 18 116z" />
    <glyph glyph-name="ograve" unicode="&#xf2;" 
d="M312 503l-14 -12h-6l-129 91q-22 16 -22 38q0 17 12 30t28 13q29 0 51 -33l80 -121v-6zM479 214q0 -93 -68 -159.5t-162 -66.5q-97 0 -156.5 65.5t-59.5 163.5q0 90 68 153t158 63q92 0 156 -63.5t64 -155.5zM357 217q0 56 -24 109q-30 67 -80 67q-106 0 -106 -179
q0 -184 110 -184q55 0 82 71q18 50 18 116z" />
    <glyph glyph-name="ocircumflex" unicode="&#xf4;" 
d="M378 503q-4 -5 -16 -10l-110 67l-55 -38q-42 -29 -55 -29l-8 10q0 10 55 83t65 73q7 0 63 -70l60 -77zM479 214q0 -93 -68 -159.5t-162 -66.5q-97 0 -156.5 65.5t-59.5 163.5q0 90 68 153t158 63q92 0 156 -63.5t64 -155.5zM357 217q0 56 -24 109q-30 67 -80 67
q-106 0 -106 -179q0 -184 110 -184q55 0 82 71q18 50 18 116z" />
    <glyph glyph-name="odieresis" unicode="&#xf6;" 
d="M401 563q0 -23 -14.5 -37.5t-38.5 -14.5q-59 0 -59 56q0 24 17.5 39t41.5 15q25 0 39 -16.5t14 -41.5zM223 563q0 -52 -53 -52q-59 0 -59 56q0 24 17.5 39t41.5 15q25 0 39 -16.5t14 -41.5zM479 214q0 -93 -68 -159.5t-162 -66.5q-97 0 -156.5 65.5t-59.5 163.5
q0 90 68 153t158 63q92 0 156 -63.5t64 -155.5zM357 217q0 56 -24 109q-30 67 -80 67q-106 0 -106 -179q0 -184 110 -184q55 0 82 71q18 50 18 116z" />
    <glyph glyph-name="otilde" unicode="&#xf5;" 
d="M396 598q0 -28 -26.5 -56t-54.5 -28q-23 0 -66 14t-66 14q-32 0 -38 -39l-6 -4h-19q-3 4 -3 16q0 32 24.5 63.5t55.5 31.5q24 0 69.5 -15t68.5 -15q22 0 29 18.5t29 17.5q3 -2 3 -18zM479 214q0 -93 -68 -159.5t-162 -66.5q-97 0 -156.5 65.5t-59.5 163.5q0 90 68 153
t158 63q92 0 156 -63.5t64 -155.5zM357 217q0 56 -24 109q-30 67 -80 67q-106 0 -106 -179q0 -184 110 -184q55 0 82 71q18 50 18 116z" />
    <glyph glyph-name="uacute" unicode="&#xfa;" 
d="M383 620q0 -24 -23 -40l-128 -89h-8l-12 10v8l81 121q22 33 49 33q17 0 29 -13t12 -30zM509 36l-5 -9q-48 -17 -144 -39l-14 12l-6 57h-6q-18 -30 -56.5 -49.5t-75.5 -19.5q-85 0 -117 62q-24 45 -24 136q0 17 1 48t1 44q0 69 -8 90q-6 15 -21 16q-20 1 -30 11v18
q0 8 12 8q11 0 49 -1q30 -1 49 0q27 1 48 5l10 -12q0 -34 -3 -119q-2 -78 -2 -119q0 -60 13 -89q20 -42 72 -42q27 0 54 22t27 49v237q0 29 -31.5 32.5t-31.5 28.5q0 8 12 8q131 0 154 4l8 -10q0 -21 -3 -67t-3 -69v-127q0 -9 -1 -24v-21q0 -27 10 -37q12 -13 47 -13l12 -4z
" />
    <glyph glyph-name="ugrave" unicode="&#xf9;" 
d="M291 503l-14 -12h-6l-129 91q-22 16 -22 38q0 17 11.5 30t28.5 13q29 0 51 -33l80 -121v-6zM509 36l-5 -9q-48 -17 -144 -39l-14 12l-6 57h-6q-18 -30 -56.5 -49.5t-75.5 -19.5q-85 0 -117 62q-24 45 -24 136q0 17 1 48t1 44q0 69 -8 90q-6 15 -21 16q-20 1 -30 11v18
q0 8 12 8q11 0 49 -1q30 -1 49 0q27 1 48 5l10 -12q0 -34 -3 -119q-2 -78 -2 -119q0 -60 13 -89q20 -42 72 -42q27 0 54 22t27 49v237q0 29 -31.5 32.5t-31.5 28.5q0 8 12 8q131 0 154 4l8 -10q0 -21 -3 -67t-3 -69v-127q0 -9 -1 -24v-21q0 -27 10 -37q12 -13 47 -13l12 -4z
" />
    <glyph glyph-name="ucircumflex" unicode="&#xfb;" 
d="M376 503q-4 -5 -16 -10l-110 67l-55 -38q-42 -29 -55 -29l-8 10q0 10 55 83t65 73q6 0 62 -70l61 -77zM509 36l-5 -9q-48 -17 -144 -39l-14 12l-6 57h-6q-18 -30 -56.5 -49.5t-75.5 -19.5q-85 0 -117 62q-24 45 -24 136q0 17 1 48t1 44q0 69 -8 90q-6 15 -21 16
q-20 1 -30 11v18q0 8 12 8q11 0 49 -1q30 -1 49 0q27 1 48 5l10 -12q0 -34 -3 -119q-2 -78 -2 -119q0 -60 13 -89q20 -42 72 -42q27 0 54 22t27 49v237q0 29 -31.5 32.5t-31.5 28.5q0 8 12 8q131 0 154 4l8 -10q0 -21 -3 -67t-3 -69v-127q0 -9 -1 -24v-21q0 -27 10 -37
q12 -13 47 -13l12 -4z" />
    <glyph glyph-name="udieresis" unicode="&#xfc;" 
d="M399 563q0 -23 -15 -37.5t-38 -14.5q-59 0 -59 56q0 24 17 39t42 15q24 0 38.5 -16.5t14.5 -41.5zM221 563q0 -52 -53 -52q-59 0 -59 56q0 24 17 39t42 15q24 0 38.5 -16.5t14.5 -41.5zM509 36l-5 -9q-48 -17 -144 -39l-14 12l-6 57h-6q-18 -30 -56.5 -49.5t-75.5 -19.5
q-85 0 -117 62q-24 45 -24 136q0 17 1 48t1 44q0 69 -8 90q-6 15 -21 16q-20 1 -30 11v18q0 8 12 8q11 0 49 -1q30 -1 49 0q27 1 48 5l10 -12q0 -34 -3 -119q-2 -78 -2 -119q0 -60 13 -89q20 -42 72 -42q27 0 54 22t27 49v237q0 29 -31.5 32.5t-31.5 28.5q0 8 12 8
q131 0 154 4l8 -10q0 -21 -3 -67t-3 -69v-127q0 -9 -1 -24v-21q0 -27 10 -37q12 -13 47 -13l12 -4z" />
    <glyph glyph-name="dagger" unicode="&#x2020;" horiz-adv-x="454" 
d="M455 446q0 -23 -16 -37.5t-40 -14.5q-15 0 -68.5 21t-81.5 21q0 -69 48 -131q-17 -40 -35 -210q-16 -146 -17 -222l-6 -10h-22q-3 4 -22 198q-19 201 -36 244q27 36 37 60q11 29 11 71q-27 0 -78 -21t-76 -21q-23 0 -38.5 14.5t-15.5 37.5t16.5 38t39.5 15q25 0 75.5 -17
t76.5 -17q0 35 -19 101.5t-19 99.5q0 25 17.5 44.5t42.5 19.5q28 0 44 -17.5t16 -45.5q0 -33 -20 -100t-20 -102q27 0 77.5 17t76.5 17q22 0 37 -15.5t15 -37.5z" />
    <glyph glyph-name="degree" unicode="&#xb0;" horiz-adv-x="245" 
d="M238 625q0 -50 -33.5 -80.5t-84.5 -30.5q-50 0 -82 28.5t-32 78.5q0 49 33.5 79t82.5 30q51 0 83.5 -27.5t32.5 -77.5zM186 623q0 27 -18.5 47t-45.5 20q-26 0 -45 -20t-19 -47t19 -49t45 -22q28 0 46 21.5t18 49.5z" />
    <glyph glyph-name="cent" unicode="&#xa2;" horiz-adv-x="452" 
d="M430 194q-7 -31 -75 -60q-59 -24 -98 -25q-2 -33 -3 -65q-3 -54 -9 -58h-28q-5 4 0 125q-87 6 -140.5 63.5t-53.5 144.5q0 92 61 158t153 76l4 99l6 9h28l6 -11l-4 -94q49 -1 91 -20q55 -24 55 -67t-46 -43q-38 0 -58 41t-44 46l-16 -343l28 -2q63 -5 118 44h10
q6 -5 15 -18zM235 517q-52 -2 -80 -53q-24 -43 -24 -98q0 -56 20 -107q25 -62 70 -77z" />
    <glyph glyph-name="sterling" unicode="&#xa3;" horiz-adv-x="534" 
d="M551 611q0 -18 -13 -30t-31 -12q-37 0 -53 22l-18 40q-9 22 -31 22q-26 0 -87 -157q-73 -188 -97 -223h142l10 -6v-27l-10 -6h-164q-33 -53 -83 -102l3 -3q21 2 40 2q68 0 113 -28q13 -9 59 -53q30 -28 60 -28q14 0 25 12t13 27l-16 10q-52 0 -52 36q0 21 15.5 37
t36.5 16q29 0 50.5 -21t21.5 -50q0 -51 -44 -81q-38 -26 -92 -26q-71 0 -116 30q-6 4 -62 57q-32 30 -70 30q-11 -37 -34 -65q-28 -36 -60 -36q-6 0 -15 7t-9 13q0 33 30 63q17 16 58 42q16 11 52 111h-72l-8 6v27l6 6h86q15 31 59 173q35 116 77 169q60 75 164 75
q41 0 75 -19q41 -22 41 -60z" />
    <glyph glyph-name="section" unicode="&#xa7;" horiz-adv-x="475" 
d="M437 275q0 -100 -92 -144q38 -43 38 -104q0 -78 -54 -122q-50 -41 -130 -41q-44 0 -78 11q-48 17 -48 51q0 45 44 45q30 0 57 -33.5t53 -33.5q35 0 55.5 23.5t20.5 58.5q0 61 -69 117l-128 98q-69 64 -69 148q0 43 23 81t61 57q-26 31 -26 96q0 72 62 113q53 34 128 34
q39 0 71 -14q43 -18 43 -52q0 -43 -48 -43q-29 0 -53.5 36.5t-50.5 36.5q-34 0 -57 -26t-23 -60q0 -57 70 -107l130 -87q70 -59 70 -139zM369 228q0 49 -47 92q-21 19 -99 68q-64 41 -86 71q-34 -23 -34 -73q0 -47 45 -90q22 -21 94 -68q61 -41 81 -68q19 7 32.5 27t13.5 41
z" />
    <glyph glyph-name="paragraph" unicode="&#xb6;" horiz-adv-x="531" 
d="M511 689l-10 -8h-58l-8 -817h-30q-5 0 -6 16v799q-23 -1 -70 -4q0 68 1 -239q1 -234 0 -373q-1 -194 -7 -199h-30q-7 5 -9 93q-1 62 0 167q1 135 1 112q-266 17 -266 237q0 152 127 206q83 36 259 36h90q14 0 16 -7q1 -3 0 -19z" />
    <glyph glyph-name="germandbls" unicode="&#xdf;" horiz-adv-x="527" 
d="M526 137q0 -63 -51 -107q-47 -42 -111 -42q-63 0 -79 26q-10 14 -17 83l4 10l18 6l10 -6q22 -44 29 -52q20 -26 51 -26q27 0 46.5 20t19.5 48q0 56 -49 95l-89 62q-48 41 -48 100q0 42 44 110.5t44 127.5q0 33 -23 59.5t-55 26.5q-88 0 -88 -177v-216q0 -4 -2 -42t-2 -66
q0 -148 44 -143l12 -7v-18l-8 -12q-89 5 -216 0l-8 10v21l10 6q6 0 16 -1h16q34 0 34 36l-1 285l-59 4l-6 8v26l8 7l57 5q0 128 51 217q64 109 186 109q52 0 88 -31.5t36 -82.5q0 -45 -29 -86l-53 -65q-28 -36 -28 -69q0 -34 51 -64q78 -45 95 -62q52 -50 52 -133z" />
    <glyph glyph-name="registered" unicode="&#xae;" horiz-adv-x="522" 
d="M498 499q0 -103 -66.5 -167.5t-169.5 -64.5q-104 0 -171 63.5t-67 167.5q0 100 69 166t169 66q104 0 170 -64t66 -167zM454 498q0 85 -54 141.5t-138 56.5q-85 0 -138.5 -55.5t-53.5 -141.5q0 -88 52.5 -143t139.5 -55q89 0 140.5 54t51.5 143zM406 372l-4 -4h-70
q-11 9 -46 71q-28 48 -56 48v-32q0 -7 -1 -19v-18q0 -32 29 -32l4 -4v-10l-6 -4q-55 3 -107 0l-5 4v10l3 4q16 0 21.5 3t5.5 17v196q0 15 -10.5 17t-19.5 3v12l4 4h118q100 0 100 -66q0 -61 -68 -77v-2q16 -9 52 -62q31 -45 51 -45l5 -5v-9zM308 564q0 24 -18 40t-42 16
q-6 0 -18 -2v-113h16q26 0 44 16.5t18 42.5z" />
    <glyph glyph-name="copyright" unicode="&#xa9;" horiz-adv-x="740" 
d="M736 359q0 -161 -102.5 -267.5t-263.5 -106.5t-263.5 105.5t-102.5 266.5q0 155 105.5 264t260.5 109q161 0 263.5 -104.5t102.5 -266.5zM676 357q0 136 -84 231q-87 98 -222 98q-136 0 -222 -94.5t-86 -232.5q0 -141 83 -234q86 -96 225 -96q140 0 225 95q81 91 81 233z
M564 248q0 -41 -75 -79q-67 -34 -113 -34q-102 0 -164 62.5t-62 164.5q0 94 66 157t160 63q30 0 61 -13q45 -19 55 -21l6 3l3 15l13 6q13 0 21 -59q3 -37 7 -75l-4 -8l-14 -3l-8 3q-45 115 -142 115q-60 0 -96 -57q-30 -48 -30 -112q0 -72 38 -126q43 -60 112 -60
q85 0 146 67l9 1z" />
    <glyph glyph-name="trademark" unicode="&#x2122;" horiz-adv-x="942" 
d="M901 358l-5 -7q-77 5 -157 0l-6 7v18l5 6q41 0 41 18v271h-4l-67 -166q-57 -137 -71 -143l-14 8l-118 299h-6v-132q0 -7 -1.5 -31t-1.5 -38q0 -86 48 -86l5 -7v-17l-5 -7q-64 1 -128 0l-7 7v18l5 6q53 0 53 118q0 17 -1 43t-1 33v85q0 28 -40 28l-6 5v17l6 6h134
q21 0 59 -103l45 -129l90 222l16 8h117l7 -4v-16l-6 -6h-8q-24 0 -24 -89q0 -17 1 -40.5t1 -26.5q0 -93 -1 -84q3 -67 21 -67h19l5 -6v-18zM393 627l-4 -7l-12 -4q-3 0 -22 28t-28 33q-16 8 -68 8v-283q0 -16 13 -19q4 -1 27 -1l6 -6v-18l-7 -7q-78 5 -163 0l-6 5v20l5 6
q27 0 32 2q11 5 11 28v273q-54 0 -76 -13q-13 -8 -21.5 -28.5t-20.5 -27.5l-14 4l-3 8q7 32 19 95l7 8q30 -14 72 -17q9 -1 77 -1h81q45 3 77 18l6 -8q3 -32 12 -96z" />
    <glyph glyph-name="acute" unicode="&#xb4;" horiz-adv-x="201" 
d="M186 620q0 -24 -23 -40l-128 -89h-8l-12 10v8l81 121q22 33 49 33q17 0 29 -13t12 -30z" />
    <glyph glyph-name="dieresis" unicode="&#xa8;" horiz-adv-x="287" 
d="M289 563q0 -23 -15 -37.5t-38 -14.5q-59 0 -59 56q0 24 17 39t42 15q24 0 38.5 -16.5t14.5 -41.5zM111 563q0 -52 -53 -52q-59 0 -59 56q0 24 17 39t42 15q24 0 38.5 -16.5t14.5 -41.5z" />
    <glyph glyph-name="AE" unicode="&#xc6;" horiz-adv-x="974" 
d="M982 166l-51 -155l-19 -14q-79 3 -177 3q-62 0 -176 -1q-131 -2 -177 -2l-10 9v24l10 7q10 0 25 -1t20 -1q33 0 33 46v239h-192q-114 -212 -114 -260q0 -24 66 -23l10 -8v-25l-10 -7q-97 8 -220 0l-8 7v26l8 7h30q29 0 192 282q160 278 174 340l-18 20h-18l-8 7v23l12 9
q31 -1 166 -8q105 -5 169 -5q109 0 187 13l8 -5l44 -162l-2 -10l-17 -10q-59 30 -80 74q-19 41 -47 52q-51 20 -212 22l-2 -318q74 0 90 2q63 7 72 37q4 18 9 35q7 28 15 30l26 -2l8 -8q-6 -33 -6 -82q0 -50 8 -139l-8 -8l-22 -5l-8 7q-17 58 -42 78q-20 16 -63 16
q-10 0 -36 -1t-43 -1v-27q0 -23 -2.5 -66t-2.5 -62q0 -65 23 -94q30 -37 106 -37q94 0 146 33q44 28 102 113l12 2q16 -6 20 -16zM460 361v271q0 14 -8 14q-10 0 -15 -10l-147 -275h170z" />
    <glyph glyph-name="Oslash" unicode="&#xd8;" horiz-adv-x="806" 
d="M776 348q0 -158 -107.5 -260.5t-266.5 -102.5q-148 0 -248 82q-80 -81 -84 -81q-2 0 -16 14t-14 16l2 8l76 77q-88 104 -88 249q0 162 106.5 271t267.5 109q139 0 244 -86l82 83l8 2q4 0 18 -12.5t12 -21.5l-86 -87q94 -106 94 -260zM578 572q-78 115 -199 115
q-98 0 -160 -108q-53 -91 -53 -197q0 -115 38 -194zM644 339q0 103 -40 190l-376 -386q32 -47 79 -78q53 -36 103 -36q117 0 180 101q54 85 54 209z" />
    <glyph glyph-name="plusminus" unicode="&#xb1;" horiz-adv-x="460" 
d="M426 294h-160v-142h-72v142h-160v67h160v134h72v-134h160v-67zM426 8h-392v67h392v-67z" />
    <glyph glyph-name="yen" unicode="&#xa5;" horiz-adv-x="560" 
d="M564 647l-8 -10q-55 0 -132 -129l-96 -183h136l8 -6v-26l-8 -6h-142v-67h142l8 -6v-26l-8 -6h-142q0 -21 -2.5 -52t-2.5 -40q0 -29 15.5 -41t61.5 -12l8 -6v-26l-8 -8h-244l-6 10v24l8 6q45 0 44 0q26 4 26 26v119h-144l-6 6v26l6 6h144v67h-144l-6 8v24l8 6h134l-69 148
q-44 91 -81 140q-18 24 -60 24l-8 7v26l8 8q121 -7 236 0l6 -7v-24l-7 -10q-27 0 -35 -3q-15 -6 -15 -28q0 -8 51 -122q47 -103 62 -133h2q5 12 66 135q54 109 54 117q0 25 -19 31q-8 3 -39 3l-8 9v24l8 8q114 -7 190 0l8 -7v-24z" />
    <glyph glyph-name="ordfeminine" unicode="&#xaa;" horiz-adv-x="302" 
d="M311 315q0 -19 -30 -35q-26 -13 -46 -13q-16 0 -42 13q-29 14 -24 29q-29 -26 -52 -34t-62 -8q-23 0 -40.5 19.5t-17.5 42.5q0 45 63 81q32 17 105 42l2 38q0 50 -56 50q-29 0 -37 -13q-5 -9 -5 -37q0 -32 -46 -32q-32 0 -32 30q0 41 58 66q47 21 94 21q63 0 86 -30
q17 -23 17 -76v-34q-1 -23 -1 -35q0 -95 20 -95q9 0 17 11t13 13q16 -7 16 -14zM167 339l-2 83q-84 -30 -84 -77q0 -36 32 -36t54 30z" />
    <glyph glyph-name="ordmasculine" unicode="&#xba;" horiz-adv-x="330" 
d="M330 426q0 -72 -49 -115.5t-123 -43.5q-68 0 -113 43.5t-45 110.5q0 69 52 113q48 41 118 41q69 0 114.5 -40.5t45.5 -108.5zM236 407q0 45 -13 83q-18 54 -55 54q-38 0 -59 -35q-17 -30 -17 -71q0 -141 72 -141q38 0 57 38q15 30 15 72z" />
    <glyph glyph-name="ae" unicode="&#xe6;" horiz-adv-x="621" 
d="M610 108q-14 -51 -68.5 -85.5t-109.5 -34.5q-113 0 -164 77h-6q-63 -77 -172 -77q-35 0 -55 27q-19 24 -19 60q0 53 39 90q27 25 88 53q71 32 91 46v50q0 72 -68 72q-44 0 -55 -17q-7 -10 -7 -55q0 -54 -58 -54q-36 0 -36 32q0 60 74 103q64 38 128 38q73 0 93 -56
q49 56 135 56q70 0 117 -45.5t47 -115.5q0 -29 -118 -35l-149 -2v-23q0 -61 36 -106t96 -45q64 0 108 52q9 10 14 10q17 -7 19 -15zM492 308q0 88 -63 88q-72 0 -90 -123l125 9q28 2 28 26zM249 100q-15 45 -15 122q-73 -38 -76 -40q-38 -28 -38 -73q0 -64 48 -64
q46 0 81 55z" />
    <glyph glyph-name="oslash" unicode="&#xf8;" horiz-adv-x="468" 
d="M457 212q0 -94 -68 -159t-162 -65q-84 0 -137 44l-42 -42l-10 1q-19 19 -19 22t43 49q-51 65 -51 157q0 87 69 150.5t157 63.5q80 0 130 -46l42 48h9l21 -19l1 -10l-42 -44q59 -65 59 -150zM313 332q-10 25 -33.5 43t-48.5 18q-59 0 -88 -64q-20 -47 -20 -115
q0 -54 8 -84zM337 220q0 43 -6 72l-185 -203q27 -59 89 -59q54 0 82 72q20 54 20 118z" />
    <glyph glyph-name="questiondown" unicode="&#xbf;" horiz-adv-x="324" 
d="M288 373q0 -59 -66 -59q-64 0 -64 59q0 27 19 43.5t47 16.5q25 0 44.5 -17.5t19.5 -42.5zM310 -224q0 -22 -17 -36.5t-39 -14.5q-79 0 -159.5 93t-80.5 174q0 62 29 91q22 22 71 30l90 12q7 1 9 23q2 16 0 44q-1 35 -1 32l8 8h22l6 -8v-196q0 -11 -27 -11q-10 0 -28 1.5
t-21 1.5q-38 0 -66 -16q-34 -19 -34 -55q0 -61 62 -88l114 -31q62 -17 62 -54z" />
    <glyph glyph-name="exclamdown" unicode="&#xa1;" horiz-adv-x="218" 
d="M175 365q0 -28 -19 -44.5t-47 -16.5t-47 17.5t-19 45.5q0 30 19 48t49 18q29 0 46.5 -19.5t17.5 -48.5zM172 -198q0 -32 -15 -53q-16 -24 -47 -24q-64 0 -64 77q0 62 23 195q24 143 27 203l6 8h18l8 -10q2 -60 24 -198q20 -129 20 -198z" />
    <glyph glyph-name="logicalnot" unicode="&#xac;" horiz-adv-x="450" 
d="M421 124h-72v170h-320v67h392v-237z" />
    <glyph glyph-name="florin" unicode="&#x192;" horiz-adv-x="540" 
d="M559 617q0 -44 -52 -44q-27 0 -41.5 38t-42.5 38q-57 0 -82 -103q-9 -41 -18 -146h106l8 -6l-6 -26q-4 -6 -114 -6l-20 -189q-20 -134 -63 -207q-56 -97 -155 -97q-34 0 -63 17q-35 19 -35 51q0 47 38 47q32 0 48.5 -37.5t43.5 -37.5q40 0 60 97q7 31 16 127l22 229h-74
l-6 8l8 24l8 6h70q14 116 66 194q65 96 170 96q38 0 70 -17q38 -21 38 -56z" />
    <glyph glyph-name="guillemotleft" unicode="&#xab;" horiz-adv-x="451" 
d="M403 69q0 -3 -11 -12.5t-15 -10.5q-9 6 -81 81q-75 77 -79 87q4 14 81 91q74 75 79 77q4 -1 15 -10t11 -12t-78 -146zM233 69q0 -3 -11 -12.5t-15 -10.5q-10 5 -83 81t-77 87q4 14 81 92q74 74 79 76q4 -1 15 -10t11 -12t-78 -146z" />
    <glyph glyph-name="guillemotright" unicode="&#xbb;" horiz-adv-x="383" 
d="M370 214q-8 -16 -78.5 -88.5t-81.5 -79.5q-10 7 -28 23q19 23 43 70l37 75l-80 146q15 19 28 22q5 -2 79 -78q78 -79 81 -90zM200 214q-8 -16 -78.5 -88.5t-81.5 -79.5q-10 7 -28 23q19 23 43 70l37 75l-80 146q15 19 28 22q5 -2 79 -78q78 -79 81 -90z" />
    <glyph glyph-name="ellipsis" unicode="&#x2026;" horiz-adv-x="950" 
d="M878 55q0 -29 -18.5 -48t-47.5 -19q-31 0 -52.5 20t-21.5 51q0 29 21 47.5t51 18.5t49 -20t19 -50zM545 55q0 -30 -19 -48.5t-49 -18.5q-31 0 -51.5 20t-20.5 51q0 29 21 47.5t51 18.5q31 0 49.5 -19.5t18.5 -50.5zM212 55q0 -29 -19 -48t-48 -19q-31 0 -52 20t-21 51
q0 29 21 47.5t50 18.5q31 0 50 -19.5t19 -50.5z" />
    <glyph glyph-name="nonbreakingspace" unicode="&#xa0;" horiz-adv-x="290" 
 />
    <glyph glyph-name="Agrave" unicode="&#xc0;" horiz-adv-x="753" 
d="M414 792l-11 -15q-8 -2 -9 -1l-170 78q-34 16 -34 49q0 17 14 31.5t32 14.5q23 0 42 -18q136 -133 136 -139zM758 9l-10 -12h-288l-10 12v20l8 8h36q22 4 22 23q0 22 -62 218h-232l-39 -107q-22 -65 -25 -109q15 -25 46 -25h12q8 1 12 1q12 0 18 -6v-25l-8 -10
q-144 8 -236 0q-10 12 -6 32l6 8q42 0 55 5q19 8 39 41q29 48 116 288q91 250 91 300q0 6 -1 8l10 10q30 8 114 60q26 -35 108 -313q84 -291 120 -352q18 -33 39 -41q15 -6 57 -6l8 -7v-21zM444 318l-48 160q-38 131 -46 138q-8 0 -13 -13q-47 -110 -101 -285h208z" />
    <glyph glyph-name="Atilde" unicode="&#xc3;" horiz-adv-x="753" 
d="M539 895q0 -33 -23 -63q-24 -33 -55 -33q-29 0 -83 16t-81 16q-23 0 -32.5 -24t-33.5 -23q-4 4 -4 18q0 36 26.5 69.5t61.5 33.5q27 0 81 -17t81 -17q28 0 36 36l6 6h18q2 -4 2 -18zM758 9l-10 -12h-288l-10 12v20l8 8h36q22 4 22 23q0 22 -62 218h-232l-39 -107
q-22 -65 -25 -109q15 -25 46 -25h12q8 1 12 1q12 0 18 -6v-25l-8 -10q-144 8 -236 0q-10 12 -6 32l6 8q42 0 55 5q19 8 39 41q29 48 116 288q91 250 91 300q0 6 -1 8l10 10q30 8 114 60q26 -35 108 -313q84 -291 120 -352q18 -33 39 -41q15 -6 57 -6l8 -7v-21zM444 318
l-48 160q-38 131 -46 138q-8 0 -13 -13q-47 -110 -101 -285h208z" />
    <glyph glyph-name="Otilde" unicode="&#xd5;" horiz-adv-x="835" 
d="M573 895q0 -33 -23 -63q-24 -33 -55 -33q-29 0 -83 16t-81 16q-23 0 -32.5 -24t-33.5 -23q-4 4 -4 18q0 36 26.5 69.5t61.5 33.5q27 0 81 -17t81 -17q28 0 36 36l6 6h18q2 -4 2 -18zM791 350q0 -158 -108 -261.5t-266 -103.5q-162 0 -267 102t-105 263q0 160 107.5 270
t266.5 110q162 0 267 -109t105 -271zM659 340q0 115 -63 222q-73 124 -181 124q-112 0 -177 -98q-57 -85 -57 -203q0 -125 58 -230q69 -126 186 -126q116 0 180 101q54 86 54 210z" />
    <glyph glyph-name="OE" unicode="&#x152;" horiz-adv-x="1096" 
d="M1084 166l-50 -154l-20 -15l-420 3q-34 0 -100.5 -7.5t-99.5 -7.5q-171 0 -275 99q-107 102 -107 274q0 160 110 266t270 106q73 0 217 -11t217 -11q88 0 162 11l8 -6l44 -162l-2 -10l-14 -8l-12 4q-78 88 -99 106q-33 27 -81 33q-13 1 -158 5l-2 -292q95 0 119 7
q56 18 59 91l8 8l24 -2l8 -8q-3 -139 4 -220l-8 -9l-22 -5q-17 15 -23 49q-4 28 -28 38q-35 16 -141 16v-61q0 -23 -2.5 -66.5t-2.5 -62.5q0 -64 23 -93q29 -37 104 -37q107 0 153 29q33 21 105 117l12 2q16 -6 20 -16zM550 121v473q0 37 -61 66q-52 26 -93 26
q-125 0 -190 -92q-58 -81 -58 -212q0 -133 58 -234q70 -121 194 -121q47 0 94 23q56 27 56 71z" />
    <glyph glyph-name="oe" unicode="&#x153;" horiz-adv-x="712" 
d="M708 108q-13 -51 -70 -87q-53 -33 -108 -33q-109 0 -156 71h-4q-49 -71 -156 -71q-94 0 -153 67q-57 64 -57 159q0 92 68 155.5t160 63.5q93 0 150 -72q56 72 154 72q68 0 114.5 -46.5t46.5 -114.5q0 -5 -10 -10.5t-15 -5.5h-241q-2 -11 -2 -34q0 -69 36 -114
q39 -49 106 -49q70 0 106 60l12 5q18 -10 19 -16zM586 311q0 85 -70 85q-63 0 -83 -103h124q29 0 29 18zM326 214q0 62 -19 111q-27 68 -80 68q-60 0 -88 -61q-21 -46 -21 -114q0 -73 20 -121q28 -69 90 -69q54 0 80 71q18 49 18 115z" />
    <glyph glyph-name="endash" unicode="&#x2013;" horiz-adv-x="558" 
d="M529 274h-500v66h500v-66z" />
    <glyph glyph-name="emdash" unicode="&#x2014;" horiz-adv-x="1058" 
d="M1029 274h-1000v66h1000v-66z" />
    <glyph glyph-name="quotedblleft" unicode="&#x201c;" horiz-adv-x="371" 
d="M346 502q0 -22 -17 -37.5t-39 -15.5q-38 0 -63 28.5t-25 66.5q0 50 32 100t78 76q17 10 24 10q10 0 10 -8q0 1 -34 -44.5t-34 -82.5q0 -21 34 -39t34 -54zM168 722q0 1 -34 -44.5t-34 -82.5q0 -20 33 -38.5t33 -54.5q0 -23 -15.5 -38t-38.5 -15q-37 0 -61.5 28.5
t-24.5 66.5q0 50 31 100.5t77 75.5q17 10 24 10q10 0 10 -8z" />
    <glyph glyph-name="quotedblright" unicode="&#x201d;" horiz-adv-x="317" 
d="M319 633q0 -93 -110 -173q-15 -11 -24 -11q-10 0 -10 9q0 -4 34 42.5t34 84.5q0 19 -33 37.5t-33 55.5q0 22 16 37t38 15q38 0 63 -29t25 -68zM139 633q0 -95 -108 -173q-15 -11 -24 -11q-10 0 -10 9q0 -2 33 43.5t33 83.5q0 20 -33 37.5t-33 55.5q0 23 16.5 37.5
t39.5 14.5q38 0 62 -29t24 -68z" />
    <glyph glyph-name="quoteleft" unicode="&#x2018;" horiz-adv-x="189" 
d="M166 502q0 -23 -16.5 -38t-39.5 -15q-37 0 -61.5 28.5t-24.5 66.5q0 50 31.5 100.5t76.5 75.5q18 10 24 10q10 0 10 -8q0 2 -33 -44t-33 -83q0 -22 33 -40t33 -53z" />
    <glyph glyph-name="quoteright" unicode="&#x2019;" horiz-adv-x="152" 
d="M147 633q0 -95 -108 -173q-15 -11 -24 -11q-10 0 -10 9q0 -4 33 43t33 84q0 20 -33 37.5t-33 55.5q0 23 16.5 37.5t39.5 14.5q38 0 62 -29t24 -68z" />
    <glyph glyph-name="divide" unicode="&#xf7;" horiz-adv-x="439" 
d="M280 404q0 -24 -17 -40.5t-41 -16.5q-26 0 -43 16t-17 41q0 24 17.5 39.5t42.5 15.5q24 0 41 -15.5t17 -39.5zM416 213h-392v67h392v-67zM280 89q0 -24 -17 -39.5t-41 -15.5q-25 0 -42.5 15.5t-17.5 39.5q0 25 17.5 40.5t42.5 15.5q24 0 41 -16t17 -40z" />
    <glyph glyph-name="ydieresis" unicode="&#xff;" horiz-adv-x="527" 
d="M428 563q0 -23 -15 -37.5t-38 -14.5q-59 0 -59 56q0 24 17.5 39t41.5 15t38.5 -16.5t14.5 -41.5zM250 563q0 -52 -53 -52q-59 0 -59 56q0 24 17.5 39t41.5 15t38.5 -16.5t14.5 -41.5zM487 395l-6 -8q-51 2 -128 -169l-135 -320q-81 -173 -145 -173q-25 0 -42.5 15
t-17.5 40q0 20 14 35t34 15q12 0 30.5 -7t25.5 -8q17 4 54 77q36 70 36 90q0 36 -71 217q-74 188 -99 188h-20l-8 8v22l8 7q42 -4 103 -3q52 2 103 3l8 -8v-22l-7 -7q-30 3 -30 -21q0 -11 32.5 -120.5t40.5 -128.5h4q95 206 95 246q0 17 -12 22q-7 2 -27 2l-8 7v22l8 8
q139 -1 153 0l7 -8v-21z" />
    <glyph glyph-name="Ydieresis" unicode="&#x178;" horiz-adv-x="745" 
d="M553 850q0 -22 -15.5 -39t-38.5 -17q-62 0 -62 60q0 24 19 38.5t43 14.5t39 -16.5t15 -40.5zM339 850q0 -23 -14.5 -39.5t-37.5 -16.5q-62 0 -62 60q0 24 19 38.5t43 14.5t38 -16.5t14 -40.5zM712 688l-8 -10q-51 0 -76 -24q-13 -14 -116.5 -176t-103.5 -167v-123
q0 -15 -1.5 -41t-1.5 -37q0 -37 14 -53q18 -20 64 -20l7 -7v-23l-7 -10q-155 9 -280 0l-7 9v23l7 8h41q43 0 43 141q0 30 -2.5 73t-2.5 48t-96.5 174t-109.5 182q-21 23 -68 23l-8 7v27l8 6q154 -8 280 0l8 -7v-23l-8 -10q-33 0 -37 -1q-17 -5 -17 -29q0 -10 68 -141
l81 -158l92 151q73 125 73 141q0 28 -17 34q-8 3 -43 3l-8 8v25l6 7q135 -8 218 0l8 -7v-23z" />
    <glyph glyph-name="currency" unicode="&#xa4;" horiz-adv-x="535" 
d="M503 137q-13 -16 -34 -33q-3 1 -95 86q-41 -29 -109 -29q-66 0 -104 35l-86 -89h-12q-14 15 -31 38q0 4 91 91q-35 33 -35 97q0 75 42 116q-96 87 -96 91q0 5 15.5 21.5t19.5 17.5q4 -1 99 -90q44 33 109 33q62 0 97 -30q91 86 94 86q4 0 19.5 -15t15.5 -20q1 -4 -88 -90
q39 -43 39 -105q0 -73 -37 -118l86 -83v-10zM372 341q0 49 -25 82q-28 35 -76 35q-49 0 -75 -33.5t-26 -83.5q0 -49 26 -82q28 -36 75 -36q49 0 77 35q24 32 24 83z" />
    <glyph glyph-name="guilsinglleft" unicode="&#x2039;" horiz-adv-x="288" 
d="M241 69q0 -3 -11.5 -12.5t-14.5 -10.5q-10 5 -87 82.5t-81 85.5q4 11 85 90q78 76 83 78q4 -1 15 -10t11 -12t-84 -146z" />
    <glyph glyph-name="guilsinglright" unicode="&#x203a;" horiz-adv-x="219" 
d="M208 214q-13 -19 -83 -88t-85 -80q-1 1 -16 12q-12 8 -12 11q19 25 44 71l40 74q-42 69 -84 146q0 3 12 12t16 10q4 -2 84 -81.5t84 -86.5z" />
    <glyph glyph-name="daggerdbl" unicode="&#x2021;" horiz-adv-x="459" 
d="M458 149q0 -23 -16.5 -37.5t-39.5 -14.5q-24 0 -74 17t-76 17q0 -36 19 -103.5t19 -100.5q0 -25 -18.5 -44.5t-43.5 -19.5q-26 0 -42 19t-16 45q0 33 20 100.5t20 103.5q-27 0 -78.5 -17t-75.5 -17q-22 0 -38 15t-16 37q0 19 16 35t36 16q23 0 75 -20t81 -20
q0 75 -38 145q38 85 38 131q-31 0 -86.5 -21t-69.5 -21q-22 0 -37 15t-15 37t17 37.5t39 15.5q24 0 74.5 -17t77.5 -17q0 34 -19 100.5t-19 99.5q0 25 17.5 45t42.5 20q27 0 43.5 -19t16.5 -46q0 -33 -20 -99.5t-20 -100.5q27 0 78 17t76 17q23 0 37.5 -15t14.5 -38
q0 -22 -14 -37t-36 -15q-13 0 -69 21t-87 21q0 -59 38 -131q-38 -57 -38 -145q28 0 79 20t75 20q21 0 36.5 -15t15.5 -36z" />
    <glyph glyph-name="periodcentered" unicode="&#xb7;" horiz-adv-x="196" 
d="M168 356q0 -29 -18.5 -48t-47.5 -19q-32 0 -53 20t-21 51q0 29 21 48.5t51 19.5t49 -21t19 -51z" />
    <glyph glyph-name="periodcentered" unicode="&#x2219;" horiz-adv-x="196" 
d="M168 356q0 -29 -18.5 -48t-47.5 -19q-32 0 -53 20t-21 51q0 29 21 48.5t51 19.5t49 -21t19 -51z" />
    <glyph glyph-name="quotesinglbase" unicode="&#x201a;" horiz-adv-x="235" 
d="M189 26q0 -97 -108 -173q-16 -11 -24 -11q-10 0 -10 9q0 -2 33 43.5t33 83.5q0 20 -33 37.5t-33 55.5q0 22 16.5 36t39.5 14q38 0 62 -28t24 -67z" />
    <glyph glyph-name="quotedblbase" unicode="&#x201e;" horiz-adv-x="424" 
d="M373 26q0 -93 -110 -173q-15 -11 -24 -11q-10 0 -10 9q0 -4 34 42.5t34 84.5q0 19 -33 37.5t-33 55.5q0 21 16 35.5t38 14.5q38 0 63 -28t25 -67zM193 26q0 -95 -108 -173q-15 -11 -24 -11q-10 0 -10 9q0 -2 33 43.5t33 83.5q0 20 -33 37.5t-33 55.5q0 22 16.5 36
t39.5 14q38 0 62 -28t24 -67z" />
    <glyph glyph-name="perthousand" unicode="&#x2030;" horiz-adv-x="1082" 
d="M1084 205q0 -89 -33 -145q-40 -69 -123 -69q-76 0 -116 66q-34 56 -34 137q0 88 33 147q42 73 123 73q78 0 118 -69q32 -56 32 -140zM730 205q0 -89 -33 -145q-40 -69 -123 -69q-76 0 -116 66q-34 56 -34 137q0 88 33 147q42 73 123 73q78 0 118 -69q32 -56 32 -140z
M593 667q-8 -20 -210.5 -348.5t-208.5 -333.5q-7 1 -20 10t-17 16q15 31 215 356q198 321 202 323q7 0 21.5 -8.5t17.5 -14.5zM304 481q0 -90 -33 -145q-40 -69 -123 -69q-76 0 -116 66q-34 56 -34 137q0 88 33 147q42 73 123 73q78 0 118 -69q32 -56 32 -140zM990 214
q0 166 -60 166q-42 0 -54 -77q-6 -34 -6 -110q0 -168 60 -168q61 0 61 133v32q-1 19 -1 24zM636 214q0 166 -60 166q-42 0 -54 -77q-6 -34 -6 -110q0 -168 60 -168q61 0 61 133v32q-1 19 -1 24zM210 490q0 165 -60 165q-42 0 -55 -77q-5 -32 -5 -109q0 -168 60 -168
q61 0 61 131v33q-1 20 -1 25z" />
    <glyph glyph-name="Acircumflex" unicode="&#xc2;" horiz-adv-x="753" 
d="M542 793q-2 -4 -9 -13l-8 -2l-134 54q-129 -56 -134 -54q-8 10 -9 15q1 5 64 68t81 72q16 -9 79 -68t70 -72zM758 9l-10 -12h-288l-10 12v20l8 8h36q22 4 22 23q0 22 -62 218h-232l-39 -107q-22 -65 -25 -109q15 -25 46 -25h12q8 1 12 1q12 0 18 -6v-25l-8 -10
q-144 8 -236 0q-10 12 -6 32l6 8q42 0 55 5q19 8 39 41q29 48 116 288q91 250 91 300q0 6 -1 8l10 10q30 8 114 60q26 -35 108 -313q84 -291 120 -352q18 -33 39 -41q15 -6 57 -6l8 -7v-21zM444 318l-48 160q-38 131 -46 138q-8 0 -13 -13q-47 -110 -101 -285h208z" />
    <glyph glyph-name="Ecircumflex" unicode="&#xca;" horiz-adv-x="641" 
d="M460 793q-1 -4 -9 -13l-8 -2l-134 54q-129 -56 -134 -54q-8 10 -9 15q2 5 63 67q65 64 82 73q17 -9 79.5 -68t69.5 -72zM624 164l-48 -152l-22 -15q-82 3 -183 3q-65 0 -184 -1q-136 -2 -183 -2l-8 8v24l10 8q8 0 22.5 -1t20.5 -1q41 0 41 46v348q0 17 2 71q1 46 0 73
q-1 40 -6 69q-6 37 -46 37h-17q-12 -1 -19 -1l-6 7v26l6 7q-16 0 263 -3q158 -1 263 3l8 -6q14 -54 46 -161l-3 -11l-18 -8l-9 5q-20 11 -54.5 55.5t-55.5 57.5q-43 27 -110 31h-118l-2 -292q94 0 118 7q57 18 58 91l8 8l26 -2l6 -8q-9 -78 4 -220l-8 -7l-22 -4l-8 7
q-19 71 -65 87q-19 6 -117 6v-43q-1 -39 -1 -64q0 -192 45 -205q28 -8 78 -8q106 0 153 30q29 19 106 116l11 4l16 -10z" />
    <glyph glyph-name="Aacute" unicode="&#xc1;" horiz-adv-x="753" 
d="M557 903q0 -32 -37 -49l-168 -78h-7l-12 16l2 8l137 132q17 17 42 17q17 0 30 -14t13 -32zM758 9l-10 -12h-288l-10 12v20l8 8h36q22 4 22 23q0 22 -62 218h-232l-39 -107q-22 -65 -25 -109q15 -25 46 -25h12q8 1 12 1q12 0 18 -6v-25l-8 -10q-144 8 -236 0q-10 12 -6 32
l6 8q42 0 55 5q19 8 39 41q29 48 116 288q91 250 91 300q0 6 -1 8l10 10q30 8 114 60q26 -35 108 -313q84 -291 120 -352q18 -33 39 -41q15 -6 57 -6l8 -7v-21zM444 318l-48 160q-38 131 -46 138q-8 0 -13 -13q-47 -110 -101 -285h208z" />
    <glyph glyph-name="Edieresis" unicode="&#xcb;" horiz-adv-x="641" 
d="M471 850q0 -22 -15.5 -39t-38.5 -17q-62 0 -62 60q0 24 19 38.5t43 14.5t39 -16.5t15 -40.5zM257 850q0 -23 -15 -39.5t-37 -16.5q-62 0 -62 60q0 24 19 38.5t43 14.5q23 0 37.5 -16.5t14.5 -40.5zM624 164l-48 -152l-22 -15q-82 3 -183 3q-65 0 -184 -1q-136 -2 -183 -2
l-8 8v24l10 8q8 0 22.5 -1t20.5 -1q41 0 41 46v348q0 17 2 71q1 46 0 73q-1 40 -6 69q-6 37 -46 37h-17q-12 -1 -19 -1l-6 7v26l6 7q-16 0 263 -3q158 -1 263 3l8 -6q14 -54 46 -161l-3 -11l-18 -8l-9 5q-20 11 -54.5 55.5t-55.5 57.5q-43 27 -110 31h-118l-2 -292
q94 0 118 7q57 18 58 91l8 8l26 -2l6 -8q-9 -78 4 -220l-8 -7l-22 -4l-8 7q-19 71 -65 87q-19 6 -117 6v-43q-1 -39 -1 -64q0 -192 45 -205q28 -8 78 -8q106 0 153 30q29 19 106 116l11 4l16 -10z" />
    <glyph glyph-name="Egrave" unicode="&#xc8;" horiz-adv-x="641" 
d="M377 792l-11 -15q-8 -2 -9 -1l-170 78q-34 16 -34 49q0 17 14.5 31.5t31.5 14.5q24 0 42 -18q136 -133 136 -139zM624 164l-48 -152l-22 -15q-82 3 -183 3q-65 0 -184 -1q-136 -2 -183 -2l-8 8v24l10 8q8 0 22.5 -1t20.5 -1q41 0 41 46v348q0 17 2 71q1 46 0 73
q-1 40 -6 69q-6 37 -46 37h-17q-12 -1 -19 -1l-6 7v26l6 7q-16 0 263 -3q158 -1 263 3l8 -6q14 -54 46 -161l-3 -11l-18 -8l-9 5q-20 11 -54.5 55.5t-55.5 57.5q-43 27 -110 31h-118l-2 -292q94 0 118 7q57 18 58 91l8 8l26 -2l6 -8q-9 -78 4 -220l-8 -7l-22 -4l-8 7
q-19 71 -65 87q-19 6 -117 6v-43q-1 -39 -1 -64q0 -192 45 -205q28 -8 78 -8q106 0 153 30q29 19 106 116l11 4l16 -10z" />
    <glyph glyph-name="Iacute" unicode="&#xcd;" horiz-adv-x="344" 
d="M342 903q0 -32 -37 -49l-168 -78h-7l-12 16l2 8l137 132q18 17 42 17q18 0 30.5 -14t12.5 -32zM325 5l-10 -8q-277 1 -300 0l-8 7v27l8 6q53 0 52 0q28 4 34 30q4 16 4 281v80q0 19 2 71q1 47 1 74q-1 40 -6 70q-5 37 -50 37q-7 0 -21.5 -1t-21.5 -1l-8 7v26l6 7h304
l8 -9v-23l-8 -8h-46q-29 -5 -30 -28v-576q1 -38 46 -38h18q13 1 18 1l8 -7v-25z" />
    <glyph glyph-name="Icircumflex" unicode="&#xce;" horiz-adv-x="370" 
d="M339 793q-1 -4 -9 -13l-8 -2l-134 54q-129 -56 -134 -54q-8 10 -9 15q2 5 63 67q65 64 82 73q16 -9 79 -68t70 -72zM347 5l-10 -8q-277 1 -300 0l-8 7v27l8 6q53 0 51 0q28 4 35 30q4 16 4 281v80q0 19 1 71q2 47 1 74q0 40 -5 70q-6 37 -50 37q-7 0 -21.5 -1t-21.5 -1
l-8 7v26l6 7h304l8 -9v-23l-8 -8h-47q-29 -5 -29 -28v-576q0 -38 46 -38h18q12 1 18 1l8 -7v-25z" />
    <glyph glyph-name="Idieresis" unicode="&#xcf;" horiz-adv-x="370" 
d="M351 850q0 -22 -16 -39t-38 -17q-62 0 -62 60q0 24 18.5 38.5t43.5 14.5q23 0 38.5 -16.5t15.5 -40.5zM137 850q0 -23 -15 -39.5t-37 -16.5q-62 0 -62 60q0 24 18.5 38.5t43.5 14.5q23 0 37.5 -16.5t14.5 -40.5zM343 5l-10 -8q-277 1 -300 0l-8 7v27l8 6q53 0 51 0
q28 4 35 30q4 16 4 281v80q0 19 1 71q2 47 1 74q0 40 -5 70q-6 37 -50 37q-7 0 -21.5 -1t-21.5 -1l-8 7v26l6 7h304l8 -9v-23l-8 -8h-47q-29 -5 -29 -28v-576q0 -38 46 -38h18q12 1 18 1l8 -7v-25z" />
    <glyph glyph-name="Igrave" unicode="&#xcc;" horiz-adv-x="352" 
d="M235 792l-11 -15q-8 -2 -9 -1l-170 78q-34 16 -34 49q0 17 14.5 31.5t31.5 14.5q24 0 42 -18q136 -133 136 -139zM341 5l-10 -8q-277 1 -300 0l-8 7v27l8 6q53 0 52 0q27 4 34 30q4 16 4 281v80q0 19 2 71q1 47 0 74q0 40 -5 70q-6 37 -50 37q-7 0 -21.5 -1t-21.5 -1
l-8 7v26l6 7h304l8 -9v-23l-8 -8h-47q-29 -5 -29 -28v-576q0 -38 46 -38h18q12 1 18 1l8 -7v-25z" />
    <glyph glyph-name="Oacute" unicode="&#xd3;" horiz-adv-x="835" 
d="M571 903q0 -32 -37 -49l-168 -78h-7l-12 16l2 8l137 132q17 17 42 17q17 0 30 -14t13 -32zM791 350q0 -158 -108 -261.5t-266 -103.5q-162 0 -267 102t-105 263q0 160 107.5 270t266.5 110q162 0 267 -109t105 -271zM659 340q0 115 -63 222q-73 124 -181 124
q-112 0 -177 -98q-57 -85 -57 -203q0 -125 58 -230q69 -126 186 -126q116 0 180 101q54 86 54 210z" />
    <glyph glyph-name="Ocircumflex" unicode="&#xd4;" horiz-adv-x="835" 
d="M566 793q-2 -4 -9 -13l-8 -2l-134 54q-129 -56 -134 -54q-8 10 -9 15q1 5 64.5 68t80.5 72q16 -9 79 -68t70 -72zM791 350q0 -158 -108 -261.5t-266 -103.5q-162 0 -267 102t-105 263q0 160 107.5 270t266.5 110q162 0 267 -109t105 -271zM659 340q0 115 -63 222
q-73 124 -181 124q-112 0 -177 -98q-57 -85 -57 -203q0 -125 58 -230q69 -126 186 -126q116 0 180 101q54 86 54 210z" />
    <glyph glyph-name="Ograve" unicode="&#xd2;" horiz-adv-x="783" 
d="M452 792l-11 -15q-8 -2 -9 -1l-170 78q-34 16 -34 49q0 17 14 31.5t32 14.5q23 0 42 -18q136 -133 136 -139zM765 350q0 -158 -108 -261.5t-266 -103.5q-162 0 -267 102t-105 263q0 160 107.5 270t266.5 110q162 0 267 -109t105 -271zM633 340q0 115 -63 222
q-73 124 -181 124q-112 0 -177 -98q-57 -85 -57 -203q0 -125 58 -230q69 -126 186 -126q116 0 180 101q54 86 54 210z" />
    <glyph glyph-name="Uacute" unicode="&#xda;" horiz-adv-x="767" 
d="M615 903q0 -32 -37 -49l-168 -78h-7l-12 16l2 8l137 132q18 17 42 17q18 0 30.5 -14t12.5 -32zM746 687l-6 -9h-36q-15 0 -28.5 -12t-13.5 -28q0 -33 2 -108q3 -80 3 -120q0 -193 -48 -290q-65 -135 -231 -135q-132 0 -197 55q-56 47 -73 145q-10 59 -10 203q0 5 4 62
t4 95q0 133 -42 133h-46l-8 9v23l10 8q147 -8 298 0l8 -7v-25l-8 -8q-58 0 -80 -22q-17 -17 -17 -60q0 -12 1.5 -41.5t1.5 -47.5v-135q0 -119 3 -146q7 -86 41 -131q42 -56 130 -56q96 0 147 64q45 58 45 156v181q0 14 1 45t1 47q0 68 -15 101q-21 45 -75 45l-8 7v25l8 8
q131 -7 224 0l10 -8v-23z" />
    <glyph glyph-name="Ucircumflex" unicode="&#xdb;" horiz-adv-x="767" 
d="M570 793q-1 -4 -9 -13l-8 -2l-134 54q-129 -56 -134 -54q-8 10 -9 15q2 5 65 68t80 72q17 -9 80 -68t69 -72zM746 687l-6 -9h-36q-15 0 -28.5 -12t-13.5 -28q0 -33 2 -108q3 -80 3 -120q0 -193 -48 -290q-65 -135 -231 -135q-132 0 -197 55q-56 47 -73 145
q-10 59 -10 203q0 5 4 62t4 95q0 133 -42 133h-46l-8 9v23l10 8q147 -8 298 0l8 -7v-25l-8 -8q-58 0 -80 -22q-17 -17 -17 -60q0 -12 1.5 -41.5t1.5 -47.5v-135q0 -119 3 -146q7 -86 41 -131q42 -56 130 -56q96 0 147 64q45 58 45 156v181q0 14 1 45t1 47q0 68 -15 101
q-21 45 -75 45l-8 7v25l8 8q131 -7 224 0l10 -8v-23z" />
    <glyph glyph-name="Ugrave" unicode="&#xd9;" horiz-adv-x="767" 
d="M472 792l-11 -15q-7 -2 -9 -1l-170 78q-34 16 -34 49q0 17 14.5 31.5t31.5 14.5q24 0 42 -18q136 -133 136 -139zM746 687l-6 -9h-36q-15 0 -28.5 -12t-13.5 -28q0 -33 2 -108q3 -80 3 -120q0 -193 -48 -290q-65 -135 -231 -135q-132 0 -197 55q-56 47 -73 145
q-10 59 -10 203q0 5 4 62t4 95q0 133 -42 133h-46l-8 9v23l10 8q147 -8 298 0l8 -7v-25l-8 -8q-58 0 -80 -22q-17 -17 -17 -60q0 -12 1.5 -41.5t1.5 -47.5v-135q0 -119 3 -146q7 -86 41 -131q42 -56 130 -56q96 0 147 64q45 58 45 156v181q0 14 1 45t1 47q0 68 -15 101
q-21 45 -75 45l-8 7v25l8 8q131 -7 224 0l10 -8v-23z" />
    <glyph glyph-name="circumflex" unicode="&#x2c6;" horiz-adv-x="248" 
d="M246 503q-4 -5 -16 -10l-110 67l-55 -38q-42 -29 -55 -29l-8 10q0 10 55 83t65 73q7 0 63 -70l60 -77z" />
    <glyph glyph-name="tilde" unicode="&#x2dc;" horiz-adv-x="279" 
d="M279 598q0 -28 -26.5 -56t-54.5 -28q-23 0 -66 14t-66 14q-32 0 -38 -39l-6 -4h-19q-3 4 -3 16q0 32 24.5 63.5t55.5 31.5q24 0 69.5 -15t68.5 -15q22 0 29 18.5t29 17.5q3 -2 3 -18z" />
    <glyph glyph-name="macron" unicode="&#xaf;" horiz-adv-x="241" 
d="M240 541q0 -6 -11 -6h-221q-6 0 -6 6v52q0 6 8 6h220q10 0 10 -6v-52z" />
    <glyph glyph-name="macron" unicode="&#x2c9;" horiz-adv-x="241" 
d="M240 541q0 -6 -11 -6h-221q-6 0 -6 6v52q0 6 8 6h220q10 0 10 -6v-52z" />
    <glyph glyph-name="cedilla" unicode="&#xb8;" horiz-adv-x="254" 
d="M223 -139q0 -50 -64 -78q-50 -21 -108 -21q-20 0 -20 20q0 9 29 14q39 6 53 12q28 13 28 43q0 38 -64 50l78 99h52l-58 -67q29 -7 50 -24q24 -21 24 -48z" />
    <glyph glyph-name="Scaron" unicode="&#x160;" horiz-adv-x="507" 
d="M416 919l-2 -8l-71 -73q-47 -48 -73 -64q-25 12 -75 64l-70 74l-1 7l6 10h10l136 -52l129 54q3 -1 11 -12zM480 209q0 -96 -58.5 -160t-153.5 -64q-66 0 -110 22q-65 33 -84 38q-3 -2 -16 -18q-9 -11 -18 -12l-12 16l8 105q7 82 16 91l22 -2l6 -8q3 -75 48 -129
q49 -59 122 -59q52 0 91 33t39 85q0 92 -90 139l-165 77q-89 58 -89 177q0 84 65 139q61 51 147 51q22 0 65 -12t61 -12t27.5 10t20.5 12q9 -15 15 -87q5 -49 9 -97l-6 -7l-16 -5l-10 6q-52 150 -166 150q-45 0 -78.5 -29t-33.5 -73q0 -89 89 -131l165 -69q90 -55 90 -177z
" />
    <glyph glyph-name="scaron" unicode="&#x161;" horiz-adv-x="334" 
d="M297 648q0 -14 -47 -73l-61 -74q-6 -8 -12 -8q-7 0 -62 68l-61 78l-1 9q4 5 16 11l110 -65l55 37q42 28 55 28zM316 133q0 -68 -51 -108q-46 -37 -116 -37q-84 0 -105 27q-12 16 -27 112l3 8l19 6l9 -3q42 -71 45 -75q30 -36 74 -36q29 0 50 17t21 45q0 42 -54.5 64
l-106.5 43q-57 33 -57 98q0 64 46 103q44 36 109 36q28 0 64 -9q49 -12 52 -31l13 -69l-1 -11l-19 -9q-8 1 -26 24q-24 31 -37 43q-27 23 -56 23q-27 0 -48 -15.5t-21 -42.5q0 -39 57 -59q101 -37 106 -40q57 -33 57 -104z" />
    <glyph glyph-name="brokenbar" unicode="&#xa6;" horiz-adv-x="263" 
d="M163 396h-64v325q0 9 6 9h50q8 0 8 -10v-324zM163 -5q0 -10 -7 -10h-51q-6 0 -6 9v327h64v-326z" />
    <glyph glyph-name="Eth" unicode="&#xd0;" horiz-adv-x="783" 
d="M770 370q0 -186 -115 -283q-108 -90 -297 -90l-169 2q-101 2 -169 -2l-8 8v24l8 8h58q43 0 43 182q0 31 -1.5 73t-1.5 47h-90l-6 8v27l8 8h88v83q0 5 1 61q1 39 0 64q-2 35 -7 59q-6 31 -47 31q-7 0 -21.5 -1t-21.5 -1l-8 7v25l8 8q61 -3 151 -2l151 2q196 0 310 -73
q136 -88 136 -275zM632 368q0 134 -85 224t-219 90q-49 0 -64 -8q-18 -10 -20 -110q0 32 0 -126v-56h154l8 -6v-31l-8 -6h-154v-18q0 -19 -2.5 -63.5t-2.5 -68.5q0 -154 113 -154q131 0 209 104q71 94 71 229z" />
    <glyph glyph-name="eth" unicode="&#xf0;" horiz-adv-x="456" 
d="M440 289q0 -127 -49 -206q-59 -95 -179 -95q-96 0 -148 59q-48 56 -48 154q0 97 65 164.5t161 67.5q43 0 73 -23l6 4q-36 126 -90 176l-122 -76l-11 3l-15 24l3 10l117 73q-19 20 -51 41q-46 30 -54 36l-5 6q0 4 9 19t11 15q12 0 77 -36q55 -31 76 -46l97 59l11 -2
l16 -23l-2 -12l-90 -53q68 -63 105 -153.5t37 -185.5zM330 188q0 87 -10 127q-21 78 -84 78q-62 0 -90 -58q-22 -44 -22 -113q0 -63 24 -121q32 -73 86 -73q52 0 77 57q19 43 19 103z" />
    <glyph glyph-name="Yacute" unicode="&#xdd;" horiz-adv-x="737" 
d="M609 903q0 -32 -37 -49l-168 -78h-7l-12 16l2 8l137 132q18 17 42 17q18 0 30.5 -14t12.5 -32zM724 688l-8 -10q-52 0 -76 -24q-14 -14 -117 -176t-103 -167v-123q0 -15 -1.5 -41t-1.5 -37q0 -37 14 -53q18 -20 64 -20l7 -7v-23l-7 -10q-155 9 -280 0l-7 9v23l7 8h41
q42 0 42 141q0 30 -2 73t-2 48t-97 174t-109 182q-21 23 -68 23l-8 7v27l8 6q154 -8 280 0l8 -7v-23l-8 -10q-34 0 -37 -1q-17 -5 -17 -29q0 -10 68 -141l81 -158l92 151q73 125 73 141q0 28 -18 34q-7 3 -42 3l-8 8v25l6 7q135 -8 218 0l8 -7v-23z" />
    <glyph glyph-name="yacute" unicode="&#xfd;" horiz-adv-x="477" 
d="M422 620q0 -24 -23 -40l-128 -89h-8l-12 10v8l81 121q22 33 49 33q17 0 29 -13t12 -30zM477 395l-6 -8q-51 2 -127 -169l-135 -320q-82 -173 -146 -173q-25 0 -42.5 15t-17.5 40q0 20 14 35t34 15q12 0 30.5 -7t25.5 -8q18 4 55 77q35 70 35 90q0 36 -71 217
q-74 188 -99 188h-20l-8 8v22l8 7q42 -4 103 -3q52 2 103 3l8 -8v-22l-7 -7q-30 3 -30 -21q0 -11 32.5 -120.5t40.5 -128.5h4q95 206 95 246q0 17 -12 22q-6 2 -27 2l-8 7v22l8 8q139 -1 153 0l7 -8v-21z" />
    <glyph glyph-name="Thorn" unicode="&#xde;" horiz-adv-x="542" 
d="M557 382q0 -107 -85 -160q-69 -43 -182 -43q-43 0 -87 7v-77q0 -56 14 -66q9 -6 74 -6l8 -7v-23l-8 -10q11 0 -145 3q-87 1 -145 -3l-8 7v25l6 8q7 0 20 -1t18 -1q34 0 39 34q6 40 7 91q0 33 -2 91q-2 65 -2 91v148q0 28 3 68t3 52q0 38 -17 52q-20 16 -75 16l-8 7v25
l6 8q60 -4 149 -3q163 3 149 3l8 -7v-24l-10 -9q-67 0 -75.5 -7.5t-8.5 -66.5v-32l66 2q116 4 191 -34q97 -49 97 -158zM419 376q0 63 -43.5 113t-106.5 50q-47 0 -66 -6v-309q23 -10 80 -10q61 0 100 52q36 47 36 110z" />
    <glyph glyph-name="thorn" unicode="&#xfe;" horiz-adv-x="482" 
d="M478 234q0 -101 -58 -171q-62 -75 -161 -75q-47 0 -86 18q1 -24 -4.5 -75.5t-5.5 -74.5q0 -96 74 -96l10 -8v-20l-8 -10q-119 8 -228 0l-8 12v18l8 8q64 0 64 69q0 12 -2 38t-2 38l-2 605q0 51 -13 72q-9 14 -27.5 19.5t-23.5 13.5v10l8 8q30 8 75 27q59 25 73 30
q9 -6 11 -80q2 -52 0 -141q-2 -112 -2 -96l4 -2q53 62 131 62q84 0 131 -59q42 -54 42 -140zM374 173q0 73 -21 127q-30 75 -92 75q-54 0 -88 -47v-221q0 -80 102 -80q53 0 79 49q20 39 20 97z" />
    <glyph glyph-name="minus" unicode="&#xad;" horiz-adv-x="459" 
d="M425 208h-392v66h392v-66z" />
    <glyph glyph-name="minus" unicode="&#x2212;" horiz-adv-x="459" 
d="M425 208h-392v66h392v-66z" />
    <glyph glyph-name="multiply" unicode="&#xd7;" horiz-adv-x="425" 
d="M402 101l-46 -53l-146 150l-148 -150l-40 53l142 141l-142 142l48 50l144 -147l144 147l44 -48l-144 -142z" />
    <glyph glyph-name="onesuperior" unicode="&#xb9;" horiz-adv-x="298" 
d="M277 279l-6 -6q-108 4 -222 0l-8 6v24q5 5 38 5q26 0 33 4.5t7 26.5t1 64t1 62v62q0 68 -18 68q-11 0 -38 -10t-34 -8l-10 22l4 8l89 44q54 27 92 39l7 -10q-2 -94 -2 -162v-174q0 -30 15 -35q3 -1 45 -1l6 -5v-24z" />
    <glyph glyph-name="twosuperior" unicode="&#xb2;" horiz-adv-x="382" 
d="M350 371q-1 -3 -42 -103l-14 -6q-3 0 -27.5 7t-40.5 7q-154 0 -188 -2l-6 8q3 9 57 58q64 59 95 100q50 65 50 119q0 30 -17.5 51t-46.5 21q-32 0 -62.5 -24t-31.5 -24l-12 8l-2 8q18 41 59 66t87 25q53 0 87.5 -30t34.5 -81q0 -65 -68 -136q-12 -12 -122 -103v-2h102
q44 0 67 20.5t31 20.5z" />
    <glyph glyph-name="threesuperior" unicode="&#xb3;" horiz-adv-x="304" 
d="M295 400q0 -67 -59 -103q-50 -30 -121 -30q-106 0 -106 60q0 14 9 25.5t23 11.5q21 0 34.5 -32.5t49.5 -32.5q30 0 53 23.5t23 54.5q0 78 -76 99q-16 4 -16 14q0 7 20 16q27 11 38 22q20 19 20 51q0 24 -15.5 42t-38.5 18q-33 0 -59 -29t-27 -29l-14 4l-4 10q12 45 50 70
t86 25q41 0 72 -19q36 -23 36 -62q0 -35 -22.5 -62.5t-57.5 -40.5v-4q41 -6 70 -33q32 -30 32 -69z" />
    <glyph glyph-name="onehalf" unicode="&#xbd;" horiz-adv-x="806" 
d="M769 95q-1 -3 -42 -103l-14 -6q-3 0 -27.5 7t-40.5 7q-154 0 -188 -2l-8 6q16 27 73 79q64 58 88 89q43 55 43 111q0 30 -17.5 51.5t-46.5 21.5q-32 0 -62 -24.5t-32 -24.5l-12 8l-2 8q17 41 58.5 66t87.5 25q52 0 87 -29.5t35 -81.5q0 -63 -69 -135q-32 -34 -121 -103
v-2h102q43 0 66.5 20t31.5 20zM629 666q0 -4 -204.5 -339.5t-213.5 -341.5q-8 1 -21 9.5t-15 14.5q0 8 203.5 342t212.5 339q5 -1 21.5 -10t16.5 -14zM293 279l-6 -6q-108 4 -222 0l-8 6v24q5 5 38 5q26 0 31 4q9 5 9 27t1 64t1 62v62q0 68 -18 68q-11 0 -38.5 -10t-33.5 -8
l-10 22l4 8l89 44q54 27 92 39l7 -10q-2 -94 -2 -162v-174q0 -30 15 -35q3 -1 45 -1l6 -5v-24z" />
    <glyph glyph-name="onequarter" unicode="&#xbc;" horiz-adv-x="733" 
d="M720 101q0 -8 -14 -11q-10 -1 -27 0q-24 1 -19 1q0 -2 1.5 -21.5t1.5 -32.5q0 -37 -13 -37h-62q-8 0 -10 21q-1 14 0 40q2 34 2 30h-177q-14 0 -14 14q0 8 12 23l119 154q105 132 124 132q16 0 16 -22v-238h54l6 -9v-44zM622 666q-1 -6 -204 -338t-214 -343q-8 1 -22 9
t-16 15q4 16 208.5 347t209.5 334q24 -4 38 -24zM270 279l-6 -6q-108 4 -222 0l-8 6v24q5 5 38 5q26 0 31 4q9 5 9 27t1 64t1 62v62q0 68 -18 68q-11 0 -38.5 -10t-33.5 -8l-10 22l4 8l89 44q54 27 92 39l7 -10q-2 -94 -2 -162v-174q0 -30 15 -35q3 -1 45 -1l6 -5v-24z
M580 154v125q0 9 -7 9q-6 0 -11 -7l-50 -61q-40 -50 -40 -58t10 -8h98z" />
    <glyph glyph-name="threequarters" unicode="&#xbe;" horiz-adv-x="728" 
d="M717 101q0 -8 -13 -11q-10 -1 -27 0q-24 1 -20 1q0 -2 2 -21.5t2 -32.5q0 -37 -14 -37h-62q-7 0 -9 21q-2 14 0 40q1 34 1 30h-177q-14 0 -14 14q0 8 12 23l120 154q105 132 123 132q16 0 16 -22v-238h54l6 -9v-44zM619 668q-2 -8 -205.5 -341.5t-212.5 -341.5
q-6 0 -19.5 10t-18.5 16q4 16 208.5 346t209.5 333q13 -2 36 -18zM297 400q0 -67 -59 -103q-49 -30 -121 -30q-106 0 -106 60q0 14 9 25.5t23 11.5q21 0 34.5 -32.5t49.5 -32.5q31 0 53.5 23.5t22.5 54.5q0 78 -76 99q-16 4 -16 14q0 7 20 16q27 11 38 22q20 19 20 51
q0 24 -15.5 42t-38.5 18q-35 0 -59.5 -30t-26.5 -30l-15 6l-3 10q13 45 50.5 70t85.5 25q41 0 72 -19q36 -23 36 -62q0 -35 -22.5 -62.5t-57.5 -40.5v-4q41 -6 70 -33q32 -30 32 -69zM577 154v125q0 9 -7 9q-5 0 -11 -7l-49 -61q-41 -50 -41 -58t10 -8h98z" />
    <glyph glyph-name="Lslash" unicode="&#x141;" horiz-adv-x="630" 
d="M638 196q0 -33 -20 -99q-28 -90 -30 -100q-354 12 -554 0l-8 9v23l6 8h48q42 0 42 149q0 30 -2 72.5t-2 47.5l-106 -42l-10 4l-10 28l6 10l120 46v96q0 4 1.5 35t1.5 54q0 134 -39 134h-42l-8 9v23l8 8q148 -10 296 0l10 -9v-23l-10 -8h-58q-36 0 -36 -166q0 -29 1 -68.5
t1 -44.5l144 56l10 -4l10 -28q-1 -6 -164 -68v-34q0 -232 4 -277h68q106 0 136 5q53 8 86 43t68 123l12 4l18 -6z" />
    <glyph glyph-name="lslash" unicode="&#x142;" horiz-adv-x="332" 
d="M328 414l-3 -8l-109 -44v-129q0 -2 -1 -30t-1 -49q0 -120 26 -120h40l10 -9v-18l-6 -10q-123 6 -242 0l-6 10v19l12 8q40 0 44 1q19 6 19 35v252l-87 -36l-8 4l-11 28l3 7l103 43v19q0 16 1.5 51t1.5 53q0 117 -78 140l-6 8v12q1 2 86.5 36.5t95.5 35.5q6 -3 8 -18
q3 -30 3 -68q0 -34 -3.5 -102.5t-3.5 -100.5v-26l90 38l10 -4z" />
    <glyph glyph-name="Zcaron" unicode="&#x17d;" horiz-adv-x="663" 
d="M515 910l-2 -8l-71 -72q-47 -48 -73 -64q-25 12 -75 63l-70 74l-1 7l6 10h10l136 -52l129 54q3 -1 11 -12zM663 168q-25 -40 -74 -172l-14 -11q-117 14 -280 16q109 -1 -279 -1l-15 9q2 17 215 314l253 349h-232q-38 0 -98 -62q-41 -43 -76 -96l-12 -4l-14 8l-4 8l35 102
q30 84 41 87q86 -8 194 -8q61 0 159 3q123 3 159 4l16 -13q-1 -5 -474 -663h266q63 0 117 46q26 23 87 100l12 2l16 -8z" />
    <glyph glyph-name="zcaron" unicode="&#x17e;" horiz-adv-x="485" 
d="M368 642q0 -14 -47 -73l-61 -73q-7 -8 -12 -8q-8 0 -63 68l-60 77l-1 9q4 5 16 10l110 -64l55 37q42 27 55 27zM464 124l-72 -136q-37 12 -338 12l-10 7q1 8 248 378h-88q-53 0 -91 -33q-15 -13 -65 -77l-10 -3l-14 8l-2 11l60 142q69 -16 167 -17q-71 1 169 1l12 -10
q0 -3 -252 -373h114q59 0 146 107l11 3l13 -10z" />
    <glyph glyph-name="notequal" unicode="&#x2260;" horiz-adv-x="835" 
d="M877 515q0 -20 -21.5 -47t-41.5 -27q-23 0 -23 25q0 20 21.5 46.5t40.5 26.5q24 0 24 -24zM775 327q0 -7 -27 -49q-70 -109 -102 -217q-7 -24 -9 -28q-8 -15 -22 -15q-22 0 -22 24q0 40 66 170q68 134 97 134q19 0 19 -19zM799 641q0 -60 -86 -140.5t-146 -81.5l-28 23
q10 19 66 49q70 38 93 56q48 39 48 83q0 32 -35 32q-74 0 -155 -72q-84 -74 -84 -147q0 -53 59.5 -141.5t59.5 -130.5q0 -68 -69 -114q-61 -40 -133 -40q-94 0 -128 54q-63 -57 -155 -57q-60 0 -101 27q-47 31 -47 88q0 44 30.5 76.5t73.5 32.5l24 -24q0 -13 -18 -21
q-28 -14 -34 -19q-18 -15 -18 -44q0 -32 27 -50q24 -16 57 -16q53 0 97 26q52 31 52 80q0 38 -57.5 122.5t-57.5 136.5q0 99 101 189t201 90q35 0 57.5 -19t22.5 -51q0 -10 -3 -21q104 94 206 94q34 0 57 -18.5t23 -51.5zM532 173q0 37 -57.5 122t-57.5 137q0 33 11 66
q-23 -25 -67 -52q-50 -30 -77 -30q-10 0 -19 6.5t-9 16.5q0 12 54 41q72 39 99 61q54 42 54 86q0 32 -35 32q-74 0 -155 -72q-84 -74 -84 -147q0 -48 39 -113l64 -104q28 18 53 18q24 0 24 -24q0 -14 -18 -22q-29 -13 -34 -17q-18 -15 -18 -44q0 -67 84 -67q53 0 97 26
q52 31 52 80z" />
    <glyph glyph-name="infinity" unicode="&#x221e;" horiz-adv-x="656" 
d="M631 300q0 -76 -34 -127q-39 -59 -111 -59q-92 0 -148 124q-65 -124 -157 -124q-70 0 -115 58q-41 54 -41 126q0 74 35 126q40 60 111 60q90 0 148 -124q62 124 157 124q70 0 115 -58q40 -53 40 -126zM607 303q0 53 -29 88t-81 35q-73 0 -142 -155q48 -93 135 -93
q53 0 85 35.5t32 89.5zM302 327q-53 93 -135 93q-53 0 -85 -36t-32 -89q0 -51 27 -85q29 -38 79 -38t92 55q21 29 54 100z" />
    <glyph glyph-name="lessequal" unicode="&#x2264;" 
d="M488 103l-462 145v65l462 145v-70l-344 -108l344 -107v-70zM488 18h-463v68h463v-68z" />
    <glyph glyph-name="greaterequal" unicode="&#x2265;" horiz-adv-x="510" 
d="M486 248l-463 -145v70l344 107l-344 108v70l463 -145v-65zM486 18h-463v68h463v-68z" />
    <glyph glyph-name="partialdiff" unicode="&#x2202;" horiz-adv-x="424" 
d="M399 367q0 -131 -47 -239q-61 -141 -175 -141q-75 0 -116 59q-36 51 -36 129t50.5 141.5t127.5 63.5q86 0 118 -93q12 45 12 148q0 167 -63 167q-17 0 -50.5 -35t-55.5 -35q-37 0 -37 32q0 34 35 54q30 17 67 17q91 0 136 -94q34 -71 34 -174zM304 224q0 125 -85 125
q-66 0 -97 -83q-23 -59 -23 -138q0 -119 84 -119q63 0 96 80q25 60 25 135z" />
    <glyph glyph-name="summation" unicode="&#x2211;" horiz-adv-x="675" 
d="M650 20l-20 -98q-14 -63 -38 -95q-32 -43 -85 -43h-482l389 446l-375 514h460q65 0 91 -33q21 -25 25 -82.5t7 -114.5h-44q-32 106 -87 144.5t-167 38.5h-132l315 -431l-344 -394h187q109 0 158 24q62 31 97 124h45z" />
    <glyph glyph-name="product" unicode="&#x220f;" horiz-adv-x="757" 
d="M762 -216h-264v40h84v880h-407v-880h84v-40h-264v40h88v880h-88v40h767v-40h-88v-880h88v-40z" />
    <glyph glyph-name="pi" unicode="&#x3c0;" horiz-adv-x="584" 
d="M547 469q0 -98 -94 -98q-14 0 -28 2q-4 -86 -4 -161v-62q0 -56 2 -70q7 -47 37 -47q52 0 58 118h25v-5q0 -156 -106 -156q-108 0 -108 213q0 41 4 98q4 70 5 75q-34 0 -127 3q0 -170 -7 -221q-20 -168 -96 -168q-46 0 -62 48q-8 27 -8 86h24q2 -52 37 -52q54 0 71 134
q4 39 7 173h-22q-76 0 -87 -53h-23q5 128 201 128q39 0 112 -5.5t100 -5.5q71 0 66 29h23v-3z" />
    <glyph glyph-name="integral" unicode="&#x222b;" horiz-adv-x="386" 
d="M420 690q0 -21 -14 -34.5t-35 -13.5q-25 0 -45 32t-28 32q-49 0 -57 -310q-6 -208 -6 -210q-10 -159 -46 -248q-48 -119 -142 -119q-32 0 -55 17q-26 19 -26 50q0 47 49 47q25 0 45.5 -31.5t28.5 -31.5q46 0 57 324q3 103 5 206q10 155 46 241q48 116 142 116
q32 0 56.5 -18t24.5 -49z" />
    <glyph glyph-name="Omega" unicode="&#x3a9;" horiz-adv-x="729" 
d="M698 408q0 -108 -72 -177q-64 -61 -176 -82v-59h123q51 0 68.5 19t19.5 67h23v-176h-272v180q82 16 127 81q41 61 41 147q0 103 -55 166q-59 65 -161 65q-100 0 -158 -64.5t-58 -166.5q0 -88 41 -147q44 -64 127 -81v-180h-272v176h23q3 -49 21 -67.5t67 -18.5h123v59
q-110 20 -175 82q-73 69 -73 177q0 131 106 204q91 63 228 63q138 0 229 -63q105 -73 105 -204z" />
    <glyph glyph-name="Omega" unicode="&#x2126;" horiz-adv-x="729" 
d="M698 408q0 -108 -72 -177q-64 -61 -176 -82v-59h123q51 0 68.5 19t19.5 67h23v-176h-272v180q82 16 127 81q41 61 41 147q0 103 -55 166q-59 65 -161 65q-100 0 -158 -64.5t-58 -166.5q0 -88 41 -147q44 -64 127 -81v-180h-272v176h23q3 -49 21 -67.5t67 -18.5h123v59
q-110 20 -175 82q-73 69 -73 177q0 131 106 204q91 63 228 63q138 0 229 -63q105 -73 105 -204z" />
    <glyph glyph-name="radical" unicode="&#x221a;" horiz-adv-x="521" 
d="M564 764h-57l-290 -784h-32l-156 431l-61 -22l-12 39l138 48l125 -346l252 681h93v-47z" />
    <glyph glyph-name="approxequal" unicode="&#x2248;" horiz-adv-x="589" 
d="M554 295q-81 -55 -149 -55q-36 0 -106.5 23.5t-108.5 23.5q-59 0 -155 -68v77q90 57 160 57q38 0 109 -23.5t106 -23.5q54 0 144 66v-77zM554 176q-81 -55 -149 -55q-37 0 -109 23.5t-111 23.5q-55 0 -150 -68v77q93 58 161 58q38 0 108 -24t106 -24q56 0 144 67v-78z
" />
    <glyph glyph-name="approxequal" unicode="&#x22f2;" horiz-adv-x="589" 
d="M554 295q-81 -55 -149 -55q-36 0 -106.5 23.5t-108.5 23.5q-59 0 -155 -68v77q90 57 160 57q38 0 109 -23.5t106 -23.5q54 0 144 66v-77zM554 176q-81 -55 -149 -55q-37 0 -109 23.5t-111 23.5q-55 0 -150 -68v77q93 58 161 58q38 0 108 -24t106 -24q56 0 144 67v-78z
" />
    <glyph glyph-name="Delta" unicode="&#x394;" horiz-adv-x="564" 
d="M569 0h-574l276 672h22zM439 45l-186 459l-187 -459h373z" />
    <glyph glyph-name="Delta" unicode="&#x2206;" horiz-adv-x="564" 
d="M569 0h-574l276 672h22zM439 45l-186 459l-187 -459h373z" />
    <glyph glyph-name="lozenge" unicode="&#x25ca;" horiz-adv-x="442" 
d="M465 289l-244 -522l-244 522l244 518zM409 289l-188 399l-188 -399l188 -403z" />
    <glyph glyph-name="fraction" unicode="&#x2044;" horiz-adv-x="405" 
d="M431 660q-8 -19 -210.5 -344.5t-208.5 -330.5q-7 1 -20 10t-17 16q14 30 214 352q199 318 203 320q6 0 21 -8.5t18 -14.5z" />
    <glyph glyph-name="fi" unicode="&#xf001;" horiz-adv-x="511" 
d="M517 7l-10 -10q-98 7 -202 0l-8 8v21l10 8q40 -1 40 43v17q-1 11 -1 17q0 15 4.5 65.5t4.5 78.5q0 112 -63 112h-118v-215q0 -10 -1.5 -30t-1.5 -30q0 -58 51 -58l12 -9v-18l-8 -10q-92 7 -224 0l-8 8v23l10 6q6 0 18 -1h15q33 0 33 35l-1 299h-65l-6 8l5 35q11 13 66 7
q0 132 63 214q70 92 198 92q41 0 73 -16q41 -19 41 -56q0 -23 -17.5 -39.5t-40.5 -16.5q-34 0 -64.5 39t-53.5 39q-70 0 -88 -91q-6 -32 -6 -144v-21h137q4 0 136 12l8 -13q-4 -16 -4 -115v-241q0 -23 19 -26q-1 0 37 0l10 -9v-18z" />
    <glyph glyph-name="fl" unicode="&#xf002;" horiz-adv-x="582" 
d="M557 7l-6 -10q-117 7 -224 0l-8 10v19l12 8q27 0 34 3q13 7 13 31l-1 299h-172v-215q0 -9 -1.5 -29t-1.5 -30q0 -61 55 -59l10 -9v-18l-6 -10q-102 7 -228 0l-8 8v23l10 6q5 0 16 -1h16q34 0 34 33l-1 301h-65l-6 8l6 34l12 8h53q0 136 53 214q63 92 194 92q75 0 118 -18
q21 -9 22 -24q2 -50 -1 -137q-4 -102 -4 -137v-191q0 -4 -1 -30t-1 -45q0 -107 29 -107h36l12 -9v-18zM377 417v138q0 61 -8 81q-14 37 -64 37q-71 0 -91 -80q-9 -34 -9 -137v-39h172z" />
    <glyph glyph-name="apple" unicode="&#xf000;" horiz-adv-x="725" 
d="M537 758q0 -60 -47.5 -112.5t-106.5 -52.5q-4 0 -8 1v9q-1 6 -1 9q0 64 50 115q47 48 112 61q0 -5 1 -15v-15zM702 197q-45 -97 -74 -137q-57 -77 -126 -77q-22 0 -62 16t-62 16t-63 -16t-63 -16q-90 0 -165 147q-65 128 -65 230q0 103 58 170q60 72 161 72
q25 0 69.5 -17t66.5 -17t66 17t68 17q107 0 175 -80q-98 -62 -98 -160q0 -116 114 -165z" />
    <glyph glyph-name="dotlessi" unicode="&#x131;" horiz-adv-x="312" 
d="M278 7l-8 -10h-229q-8 0 -8 29l10 8q41 0 52.5 7t11.5 31q0 6 -1 27t-1 36v154q0 29 -16 42q-3 2 -30 14q-16 7 -16 22q8 10 76 35q65 24 85 27q6 -2 7 -26q1 -16 1 -44q-2 -36 -2 -32v-205q0 -88 18 -88q8 0 19 1t14 1q18 0 17 -29z" />
    <glyph glyph-name="breve" unicode="&#x2d8;" horiz-adv-x="269" 
d="M268 604q0 -6 -11 -30q-45 -88 -126 -88q-44 0 -86 36q-45 38 -45 82q0 6 2 12l11 6q1 0 17 -15q19 -18 40 -29q30 -15 63 -15q42 0 85 29t36 29l11 -6q3 -5 3 -11z" />
    <glyph glyph-name="dotaccent" unicode="&#x2d9;" horiz-adv-x="138" 
d="M131 563q0 -25 -17 -41t-42 -16q-65 0 -65 59q0 27 19 42.5t46 15.5q26 0 42.5 -17t16.5 -43z" />
    <glyph glyph-name="ring" unicode="&#x2da;" horiz-adv-x="221" 
d="M219 580q0 -42 -37 -66q-31 -20 -76 -20q-40 0 -69 18q-36 21 -36 58q0 40 38 64q33 20 75 20q39 0 69 -17q36 -21 36 -57zM156 576q0 46 -44 46q-46 0 -46 -48q0 -50 44 -50q46 0 46 52z" />
    <glyph glyph-name="hungarumlaut" unicode="&#x2dd;" horiz-adv-x="312" 
d="M311 620q0 -25 -21 -40l-128 -94h-7l-11 10v8l80 120q22 33 51 33q36 0 36 -37zM170 618q0 -22 -21 -38l-127 -94h-8l-12 10v8l80 120q22 33 50 33q16 0 27 -11.5t11 -27.5z" />
    <glyph glyph-name="ogonek" unicode="&#x2db;" horiz-adv-x="209" 
d="M199 -206q0 -15 -32 -24q-23 -6 -44 -6q-47 0 -78 20q-36 23 -36 68q0 37 33 83q30 42 65 65h42q-62 -56 -62 -130q0 -26 16.5 -47t41.5 -21q8 0 22.5 3t21.5 3q10 0 10 -14z" />
    <glyph glyph-name="caron" unicode="&#x2c7;" horiz-adv-x="248" 
d="M246 642q0 -14 -47 -73l-61 -73q-6 -8 -12 -8q-7 0 -62 68l-61 77l-1 9q4 5 16 10l110 -64l55 37q42 27 55 27z" />
    </font>
</defs>
</svg>
